%TF.GenerationSoftware,KiCad,Pcbnew,8.0.2-8.0.2-0~ubuntu22.04.1*%
%TF.CreationDate,2024-05-19T18:59:24-07:00*%
%TF.ProjectId,100kbd,3130306b-6264-42e6-9b69-6361645f7063,rev?*%
%TF.SameCoordinates,Original*%
%TF.FileFunction,Paste,Bot*%
%TF.FilePolarity,Positive*%
%FSLAX46Y46*%
G04 Gerber Fmt 4.6, Leading zero omitted, Abs format (unit mm)*
G04 Created by KiCad (PCBNEW 8.0.2-8.0.2-0~ubuntu22.04.1) date 2024-05-19 18:59:24*
%MOMM*%
%LPD*%
G01*
G04 APERTURE LIST*
G04 Aperture macros list*
%AMRoundRect*
0 Rectangle with rounded corners*
0 $1 Rounding radius*
0 $2 $3 $4 $5 $6 $7 $8 $9 X,Y pos of 4 corners*
0 Add a 4 corners polygon primitive as box body*
4,1,4,$2,$3,$4,$5,$6,$7,$8,$9,$2,$3,0*
0 Add four circle primitives for the rounded corners*
1,1,$1+$1,$2,$3*
1,1,$1+$1,$4,$5*
1,1,$1+$1,$6,$7*
1,1,$1+$1,$8,$9*
0 Add four rect primitives between the rounded corners*
20,1,$1+$1,$2,$3,$4,$5,0*
20,1,$1+$1,$4,$5,$6,$7,0*
20,1,$1+$1,$6,$7,$8,$9,0*
20,1,$1+$1,$8,$9,$2,$3,0*%
%AMOutline5P*
0 Free polygon, 5 corners , with rotation*
0 The origin of the aperture is its center*
0 number of corners: always 5*
0 $1 to $10 corner X, Y*
0 $11 Rotation angle, in degrees counterclockwise*
0 create outline with 5 corners*
4,1,5,$1,$2,$3,$4,$5,$6,$7,$8,$9,$10,$1,$2,$11*%
%AMOutline6P*
0 Free polygon, 6 corners , with rotation*
0 The origin of the aperture is its center*
0 number of corners: always 6*
0 $1 to $12 corner X, Y*
0 $13 Rotation angle, in degrees counterclockwise*
0 create outline with 6 corners*
4,1,6,$1,$2,$3,$4,$5,$6,$7,$8,$9,$10,$11,$12,$1,$2,$13*%
%AMOutline7P*
0 Free polygon, 7 corners , with rotation*
0 The origin of the aperture is its center*
0 number of corners: always 7*
0 $1 to $14 corner X, Y*
0 $15 Rotation angle, in degrees counterclockwise*
0 create outline with 7 corners*
4,1,7,$1,$2,$3,$4,$5,$6,$7,$8,$9,$10,$11,$12,$13,$14,$1,$2,$15*%
%AMOutline8P*
0 Free polygon, 8 corners , with rotation*
0 The origin of the aperture is its center*
0 number of corners: always 8*
0 $1 to $16 corner X, Y*
0 $17 Rotation angle, in degrees counterclockwise*
0 create outline with 8 corners*
4,1,8,$1,$2,$3,$4,$5,$6,$7,$8,$9,$10,$11,$12,$13,$14,$15,$16,$1,$2,$17*%
G04 Aperture macros list end*
%ADD10RoundRect,0.500000X-0.750000X-0.775000X0.750000X-0.775000X0.750000X0.775000X-0.750000X0.775000X0*%
%ADD11R,1.700000X1.200000*%
%ADD12Outline5P,-0.850000X0.600000X0.850000X0.600000X0.850000X-0.600000X-0.610000X-0.600000X-0.850000X-0.360000X0.000000*%
%ADD13Outline5P,-0.850000X0.600000X0.850000X0.600000X0.850000X-0.600000X-0.610000X-0.600000X-0.850000X-0.360000X180.000000*%
%ADD14R,2.300000X0.820000*%
%ADD15RoundRect,0.205000X-0.945000X-0.205000X0.945000X-0.205000X0.945000X0.205000X-0.945000X0.205000X0*%
%ADD16RoundRect,0.250000X-0.650000X0.412500X-0.650000X-0.412500X0.650000X-0.412500X0.650000X0.412500X0*%
%ADD17RoundRect,0.225000X0.375000X-0.225000X0.375000X0.225000X-0.375000X0.225000X-0.375000X-0.225000X0*%
%ADD18R,1.200000X1.700000*%
%ADD19Outline5P,-0.850000X0.600000X0.850000X0.600000X0.850000X-0.600000X-0.610000X-0.600000X-0.850000X-0.360000X90.000000*%
%ADD20RoundRect,0.250000X-0.412500X-0.650000X0.412500X-0.650000X0.412500X0.650000X-0.412500X0.650000X0*%
%ADD21RoundRect,0.250000X0.412500X0.650000X-0.412500X0.650000X-0.412500X-0.650000X0.412500X-0.650000X0*%
%ADD22RoundRect,0.250000X0.650000X-0.412500X0.650000X0.412500X-0.650000X0.412500X-0.650000X-0.412500X0*%
%ADD23Outline5P,-0.850000X0.600000X0.850000X0.600000X0.850000X-0.600000X-0.610000X-0.600000X-0.850000X-0.360000X270.000000*%
G04 APERTURE END LIST*
D10*
%TO.C,SW53*%
X-8345000Y300800000D03*
X-8345000Y300800000D03*
X-8345000Y300800000D03*
X6005000Y299750000D03*
X6005000Y299750000D03*
X6005000Y299750000D03*
%TD*%
%TO.C,SW38*%
X-81475000Y399300000D03*
X-81475000Y399300000D03*
X-67125000Y398250000D03*
X-67125000Y398250000D03*
%TD*%
%TO.C,SW17*%
X4825000Y399300000D03*
X4825000Y399300000D03*
X19175000Y398250000D03*
X19175000Y398250000D03*
%TD*%
%TO.C,SW56*%
X-15000Y339000000D03*
X-15000Y339000000D03*
X14335000Y337950000D03*
X14335000Y337950000D03*
%TD*%
%TO.C,SW22*%
X-152815000Y339000000D03*
X-152815000Y339000000D03*
X-138465000Y337950000D03*
X-138465000Y337950000D03*
%TD*%
%TO.C,SW74*%
X-81219000Y358100000D03*
X-81219000Y358100000D03*
X-66869000Y357050000D03*
X-66869000Y357050000D03*
%TD*%
%TO.C,SW10*%
X106555000Y377200000D03*
X106555000Y377200000D03*
X120905000Y376150000D03*
X120905000Y376150000D03*
%TD*%
%TO.C,SW44*%
X-66875000Y319900000D03*
X-66875000Y319900000D03*
X-52525000Y318850000D03*
X-52525000Y318850000D03*
%TD*%
%TO.C,SW21*%
X-217095000Y339000000D03*
X-217095000Y339000000D03*
X-217095000Y339000000D03*
X-202745000Y337950000D03*
X-202745000Y337950000D03*
X-202745000Y337950000D03*
%TD*%
%TO.C,SW66*%
X-23919000Y358100000D03*
X-23919000Y358100000D03*
X-9569000Y357050000D03*
X-9569000Y357050000D03*
%TD*%
%TO.C,SW90*%
X106555000Y418800000D03*
X106555000Y418800000D03*
X120905000Y417750000D03*
X120905000Y417750000D03*
%TD*%
%TO.C,SW76*%
X-4819000Y358100000D03*
X-4819000Y358100000D03*
X9531000Y357050000D03*
X9531000Y357050000D03*
%TD*%
%TO.C,SW28*%
X-100575000Y399300000D03*
X-100575000Y399300000D03*
X-86225000Y398250000D03*
X-86225000Y398250000D03*
%TD*%
%TO.C,SW41*%
X-221800000Y300800000D03*
X-221800000Y300800000D03*
X-221800000Y300800000D03*
X-207450000Y299750000D03*
X-207450000Y299750000D03*
X-207450000Y299750000D03*
%TD*%
%TO.C,SW27*%
X43025000Y399300000D03*
X43025000Y399300000D03*
X57375000Y398250000D03*
X57375000Y398250000D03*
%TD*%
%TO.C,SW87*%
X5125000Y377200000D03*
X5125000Y377200000D03*
X19475000Y376150000D03*
X19475000Y376150000D03*
%TD*%
%TO.C,SW94*%
X-90375000Y377200000D03*
X-90375000Y377200000D03*
X-76025000Y376150000D03*
X-76025000Y376150000D03*
%TD*%
%TO.C,SW6*%
X106540000Y300800000D03*
X106540000Y300800000D03*
X120890000Y299750000D03*
X120890000Y299750000D03*
%TD*%
%TO.C,SW26*%
X-9575000Y319900000D03*
X-9575000Y319900000D03*
X4775000Y318850000D03*
X4775000Y318850000D03*
%TD*%
%TO.C,SW15*%
X87445000Y300800000D03*
X87445000Y300800000D03*
X101795000Y299750000D03*
X101795000Y299750000D03*
%TD*%
%TO.C,SW83*%
X-119419000Y358100000D03*
X-119419000Y358100000D03*
X-105069000Y357050000D03*
X-105069000Y357050000D03*
%TD*%
%TO.C,SW40*%
X87460000Y399700000D03*
X87460000Y399700000D03*
X101810000Y398650000D03*
X101810000Y398650000D03*
%TD*%
%TO.C,SW52*%
X-185875000Y377200000D03*
X-185875000Y377200000D03*
X-171525000Y376150000D03*
X-171525000Y376150000D03*
%TD*%
%TO.C,SW85*%
X-71275000Y377200000D03*
X-71275000Y377200000D03*
X-56925000Y376150000D03*
X-56925000Y376150000D03*
%TD*%
%TO.C,SW36*%
X26005000Y319900000D03*
X26005000Y319900000D03*
X26005000Y319900000D03*
X40355000Y318850000D03*
X40355000Y318850000D03*
X40355000Y318850000D03*
%TD*%
%TO.C,SW12*%
X-143275000Y319900000D03*
X-143275000Y319900000D03*
X-128925000Y318850000D03*
X-128925000Y318850000D03*
%TD*%
%TO.C,SW100*%
X106565000Y399700000D03*
X106565000Y399700000D03*
X120915000Y398650000D03*
X120915000Y398650000D03*
%TD*%
%TO.C,SW25*%
X-47775000Y319900000D03*
X-47775000Y319900000D03*
X-33425000Y318850000D03*
X-33425000Y318850000D03*
%TD*%
%TO.C,SW19*%
X-140825000Y423800000D03*
X-140825000Y423800000D03*
X-126475000Y422750000D03*
X-126475000Y422750000D03*
%TD*%
%TO.C,SW70*%
X68345000Y377200000D03*
X68345000Y377200000D03*
X82695000Y376150000D03*
X82695000Y376150000D03*
%TD*%
%TO.C,SW63*%
X-105075000Y319900000D03*
X-105075000Y319900000D03*
X-90725000Y318850000D03*
X-90725000Y318850000D03*
%TD*%
%TO.C,SW3*%
X-32050000Y300800000D03*
X-32050000Y300800000D03*
X-32050000Y300800000D03*
X-17700000Y299750000D03*
X-17700000Y299750000D03*
X-17700000Y299750000D03*
%TD*%
%TO.C,SW93*%
X-128575000Y377200000D03*
X-128575000Y377200000D03*
X-114225000Y376150000D03*
X-114225000Y376150000D03*
%TD*%
%TO.C,SW29*%
X8895000Y423800000D03*
X8895000Y423800000D03*
X23245000Y422750000D03*
X23245000Y422750000D03*
%TD*%
%TO.C,SW95*%
X-52175000Y377200000D03*
X-52175000Y377200000D03*
X-37825000Y376150000D03*
X-37825000Y376150000D03*
%TD*%
%TO.C,SW49*%
X-33310518Y423800000D03*
X-33310518Y423800000D03*
X-18960518Y422750000D03*
X-18960518Y422750000D03*
%TD*%
%TO.C,SW71*%
X-198095000Y300800000D03*
X-198095000Y300800000D03*
X-198095000Y300800000D03*
X-183745000Y299750000D03*
X-183745000Y299750000D03*
X-183745000Y299750000D03*
%TD*%
%TO.C,SW14*%
X-85975000Y319900000D03*
X-85975000Y319900000D03*
X-71625000Y318850000D03*
X-71625000Y318850000D03*
%TD*%
%TO.C,SW84*%
X-109475000Y377200000D03*
X-109475000Y377200000D03*
X-95125000Y376150000D03*
X-95125000Y376150000D03*
%TD*%
%TO.C,SW45*%
X-57315000Y339000000D03*
X-57315000Y339000000D03*
X-42965000Y337950000D03*
X-42965000Y337950000D03*
%TD*%
%TO.C,SW42*%
X-166775000Y377200000D03*
X-166775000Y377200000D03*
X-152425000Y376150000D03*
X-152425000Y376150000D03*
%TD*%
%TO.C,SW72*%
X-171915000Y339000000D03*
X-171915000Y339000000D03*
X-157565000Y337950000D03*
X-157565000Y337950000D03*
%TD*%
%TO.C,SW24*%
X-95515000Y339000000D03*
X-95515000Y339000000D03*
X-81165000Y337950000D03*
X-81165000Y337950000D03*
%TD*%
%TO.C,SW20*%
X106555000Y358100000D03*
X106555000Y358100000D03*
X120905000Y357050000D03*
X120905000Y357050000D03*
%TD*%
%TO.C,SW13*%
X-124175000Y319900000D03*
X-124175000Y319900000D03*
X-109825000Y318850000D03*
X-109825000Y318850000D03*
%TD*%
%TO.C,SW55*%
X-38215000Y339000000D03*
X-38215000Y339000000D03*
X-23865000Y337950000D03*
X-23865000Y337950000D03*
%TD*%
%TO.C,SW98*%
X-129575000Y399300000D03*
X-129575000Y399300000D03*
X-115225000Y398250000D03*
X-115225000Y398250000D03*
%TD*%
%TO.C,SW39*%
X27995000Y423800000D03*
X27995000Y423800000D03*
X42345000Y422750000D03*
X42345000Y422750000D03*
%TD*%
%TO.C,SW11*%
X-219497000Y358100000D03*
X-219497000Y358100000D03*
X-219497000Y358100000D03*
X-205147000Y357050000D03*
X-205147000Y357050000D03*
X-205147000Y357050000D03*
%TD*%
%TO.C,SW31*%
X-212325000Y319900000D03*
X-212325000Y319900000D03*
X-212325000Y319900000D03*
X-197975000Y318850000D03*
X-197975000Y318850000D03*
X-197975000Y318850000D03*
%TD*%
%TO.C,SW73*%
X-114615000Y339000000D03*
X-114615000Y339000000D03*
X-100265000Y337950000D03*
X-100265000Y337950000D03*
%TD*%
%TO.C,SW35*%
X-28675000Y319900000D03*
X-28675000Y319900000D03*
X-14325000Y318850000D03*
X-14325000Y318850000D03*
%TD*%
%TO.C,SW62*%
X-176719000Y358100000D03*
X-176719000Y358100000D03*
X-162369000Y357050000D03*
X-162369000Y357050000D03*
%TD*%
%TO.C,SW79*%
X-56415000Y423800000D03*
X-56415000Y423800000D03*
X-42065000Y422750000D03*
X-42065000Y422750000D03*
%TD*%
%TO.C,SW60*%
X87450000Y358100000D03*
X87450000Y358100000D03*
X101800000Y357050000D03*
X101800000Y357050000D03*
%TD*%
%TO.C,SW91*%
X-191015000Y339000000D03*
X-191015000Y339000000D03*
X-176665000Y337950000D03*
X-176665000Y337950000D03*
%TD*%
%TO.C,SW68*%
X-186875000Y399300000D03*
X-186875000Y399300000D03*
X-172525000Y398250000D03*
X-172525000Y398250000D03*
%TD*%
%TO.C,SW61*%
X-204975000Y377200000D03*
X-204975000Y377200000D03*
X-190625000Y376150000D03*
X-190625000Y376150000D03*
%TD*%
%TO.C,SW67*%
X14281000Y358100000D03*
X14281000Y358100000D03*
X28631000Y357050000D03*
X28631000Y357050000D03*
%TD*%
%TO.C,SW75*%
X-43019000Y358100000D03*
X-43019000Y358100000D03*
X-28669000Y357050000D03*
X-28669000Y357050000D03*
%TD*%
%TO.C,SW96*%
X-13975000Y377200000D03*
X-13975000Y377200000D03*
X375000Y376150000D03*
X375000Y376150000D03*
%TD*%
%TO.C,SW80*%
X87450000Y377200000D03*
X87450000Y377200000D03*
X101800000Y376150000D03*
X101800000Y376150000D03*
%TD*%
%TO.C,SW89*%
X-117715000Y423800000D03*
X-117715000Y423800000D03*
X-103365000Y422750000D03*
X-103365000Y422750000D03*
%TD*%
%TO.C,SW92*%
X-174390000Y300800000D03*
X-174390000Y300800000D03*
X-174390000Y300800000D03*
X-160040000Y299750000D03*
X-160040000Y299750000D03*
X-160040000Y299750000D03*
%TD*%
%TO.C,SW59*%
X-14210518Y423800000D03*
X-14210518Y423800000D03*
X139482Y422750000D03*
X139482Y422750000D03*
%TD*%
%TO.C,SW58*%
X-43275000Y399300000D03*
X-43275000Y399300000D03*
X-28925000Y398250000D03*
X-28925000Y398250000D03*
%TD*%
%TO.C,SW50*%
X68345000Y358100000D03*
X68345000Y358100000D03*
X82695000Y357050000D03*
X82695000Y357050000D03*
%TD*%
%TO.C,SW43*%
X-147675000Y377200000D03*
X-147675000Y377200000D03*
X-133325000Y376150000D03*
X-133325000Y376150000D03*
%TD*%
%TO.C,SW51*%
X-195819000Y358100000D03*
X-195819000Y358100000D03*
X-181469000Y357050000D03*
X-181469000Y357050000D03*
%TD*%
%TO.C,SW82*%
X-162375000Y319900000D03*
X-162375000Y319900000D03*
X-148025000Y318850000D03*
X-148025000Y318850000D03*
%TD*%
%TO.C,SW57*%
X23925000Y399300000D03*
X23925000Y399300000D03*
X38275000Y398250000D03*
X38275000Y398250000D03*
%TD*%
%TO.C,SW86*%
X-33075000Y377200000D03*
X-33075000Y377200000D03*
X-18725000Y376150000D03*
X-18725000Y376150000D03*
%TD*%
%TO.C,SW18*%
X-14275000Y399300000D03*
X-14275000Y399300000D03*
X75000Y398250000D03*
X75000Y398250000D03*
%TD*%
%TO.C,SW47*%
X30835000Y339000000D03*
X30835000Y339000000D03*
X30835000Y339000000D03*
X45185000Y337950000D03*
X45185000Y337950000D03*
X45185000Y337950000D03*
%TD*%
%TO.C,SW99*%
X-98615000Y423800000D03*
X-98615000Y423800000D03*
X-84265000Y422750000D03*
X-84265000Y422750000D03*
%TD*%
%TO.C,SW88*%
X-148675000Y399300000D03*
X-148675000Y399300000D03*
X-134325000Y398250000D03*
X-134325000Y398250000D03*
%TD*%
%TO.C,SW5*%
X68345000Y300800000D03*
X68345000Y300800000D03*
X82695000Y299750000D03*
X82695000Y299750000D03*
%TD*%
%TO.C,SW34*%
X39065000Y300800000D03*
X39065000Y300800000D03*
X39065000Y300800000D03*
X53415000Y299750000D03*
X53415000Y299750000D03*
X53415000Y299750000D03*
%TD*%
%TO.C,SW78*%
X-167775000Y399300000D03*
X-167775000Y399300000D03*
X-153425000Y398250000D03*
X-153425000Y398250000D03*
%TD*%
%TO.C,SW1*%
X-224075000Y377200000D03*
X-224075000Y377200000D03*
X-209725000Y376150000D03*
X-209725000Y376150000D03*
%TD*%
%TO.C,SW48*%
X-62375000Y399300000D03*
X-62375000Y399300000D03*
X-48025000Y398250000D03*
X-48025000Y398250000D03*
%TD*%
%TO.C,SW9*%
X-159925000Y423800000D03*
X-159925000Y423800000D03*
X-145575000Y422750000D03*
X-145575000Y422750000D03*
%TD*%
%TO.C,SW7*%
X87455000Y418800000D03*
X87455000Y418800000D03*
X101805000Y417750000D03*
X101805000Y417750000D03*
%TD*%
%TO.C,SW8*%
X-224075000Y399300000D03*
X-224075000Y399300000D03*
X-209725000Y398250000D03*
X-209725000Y398250000D03*
%TD*%
%TO.C,SW16*%
X87445000Y319900000D03*
X87445000Y319900000D03*
X101795000Y318850000D03*
X101795000Y318850000D03*
%TD*%
%TO.C,SW65*%
X-62119000Y358100000D03*
X-62119000Y358100000D03*
X-47769000Y357050000D03*
X-47769000Y357050000D03*
%TD*%
%TO.C,SW97*%
X33595000Y377200001D03*
X33595000Y377200001D03*
X33595000Y377200000D03*
X47945000Y376150001D03*
X47945000Y376150001D03*
X47945000Y376150000D03*
%TD*%
%TO.C,SW37*%
X68355000Y418800000D03*
X68355000Y418800000D03*
X82705000Y417750000D03*
X82705000Y417750000D03*
%TD*%
%TO.C,SW23*%
X-133715000Y339000000D03*
X-133715000Y339000000D03*
X-119365000Y337950000D03*
X-119365000Y337950000D03*
%TD*%
%TO.C,SW33*%
X-138519000Y358100000D03*
X-138519000Y358100000D03*
X-124169000Y357050000D03*
X-124169000Y357050000D03*
%TD*%
%TO.C,SW64*%
X-100319000Y358100000D03*
X-100319000Y358100000D03*
X-85969000Y357050000D03*
X-85969000Y357050000D03*
%TD*%
%TO.C,SW81*%
X-181475000Y319900000D03*
X-181475000Y319900000D03*
X-167125000Y318850000D03*
X-167125000Y318850000D03*
%TD*%
%TO.C,SW54*%
X-76415000Y339000000D03*
X-76415000Y339000000D03*
X-62065000Y337950000D03*
X-62065000Y337950000D03*
%TD*%
%TO.C,SW46*%
X-19115000Y339000000D03*
X-19115000Y339000000D03*
X-4765000Y337950000D03*
X-4765000Y337950000D03*
%TD*%
%TO.C,SW4*%
X15360000Y300800000D03*
X15360000Y300800000D03*
X15360000Y300800000D03*
X29710000Y299750000D03*
X29710000Y299750000D03*
X29710000Y299750000D03*
%TD*%
%TO.C,SW69*%
X-75510518Y423800000D03*
X-75510518Y423800000D03*
X-61160518Y422750000D03*
X-61160518Y422750000D03*
%TD*%
%TO.C,SW77*%
X37959000Y358100000D03*
X37959000Y358100000D03*
X37959000Y358100000D03*
X52309000Y357050000D03*
X52309000Y357050000D03*
X52309000Y357050000D03*
%TD*%
%TO.C,SW32*%
X-157619000Y358100000D03*
X-157619000Y358100000D03*
X-143269000Y357050000D03*
X-143269000Y357050000D03*
%TD*%
%TO.C,SW30*%
X68355000Y399700000D03*
X68355000Y399700000D03*
X82705000Y398650000D03*
X82705000Y398650000D03*
%TD*%
D11*
%TO.C,D224*%
X-5800000Y441500000D03*
X-5800000Y438300000D03*
D12*
X-10700000Y438300000D03*
D11*
X-10700000Y441500000D03*
%TD*%
%TO.C,D215*%
X122000000Y293000000D03*
X122000000Y296200000D03*
D13*
X126900000Y296200000D03*
D11*
X126900000Y293000000D03*
%TD*%
D14*
%TO.C,D143*%
X-115000000Y367200000D03*
X-115000000Y368700000D03*
D15*
X-109300000Y368700000D03*
D14*
X-109300000Y367200000D03*
%TD*%
%TO.C,D104*%
X43400000Y310000000D03*
X43400000Y311500000D03*
D15*
X49100000Y311500000D03*
D14*
X49100000Y310000000D03*
%TD*%
D16*
%TO.C,C87*%
X-139000000Y430750000D03*
X-139000000Y427625000D03*
%TD*%
%TO.C,C110*%
X-225600000Y337725000D03*
X-225600000Y334600000D03*
%TD*%
%TO.C,C58*%
X35250000Y384250000D03*
X35250000Y381125000D03*
%TD*%
%TO.C,C42*%
X-22250000Y365000000D03*
X-22250000Y361875000D03*
%TD*%
D17*
%TO.C,D18*%
X-17000000Y403700000D03*
X-17000000Y407000000D03*
%TD*%
%TO.C,D63*%
X-107290000Y325110000D03*
X-107290000Y328410000D03*
%TD*%
D14*
%TO.C,D183*%
X-125200000Y408400000D03*
X-125200000Y409900000D03*
D15*
X-119500000Y409900000D03*
D14*
X-119500000Y408400000D03*
%TD*%
D16*
%TO.C,C28*%
X108250000Y365250000D03*
X108250000Y362125000D03*
%TD*%
%TO.C,C9*%
X-65000000Y327000000D03*
X-65000000Y323875000D03*
%TD*%
D17*
%TO.C,D81*%
X-185050000Y325070000D03*
X-185050000Y328370000D03*
%TD*%
D14*
%TO.C,D147*%
X-38700000Y367200000D03*
X-38700000Y368700000D03*
D15*
X-33000000Y368700000D03*
D14*
X-33000000Y367200000D03*
%TD*%
D18*
%TO.C,D202*%
X-227300000Y393700000D03*
X-224100000Y393700000D03*
D19*
X-224100000Y388800000D03*
D18*
X-227300000Y388800000D03*
%TD*%
D16*
%TO.C,C60*%
X89000000Y384375000D03*
X89000000Y381250000D03*
%TD*%
D17*
%TO.C,D23*%
X-136090000Y343990000D03*
X-136090000Y347290000D03*
%TD*%
%TO.C,D64*%
X-102740000Y363360000D03*
X-102740000Y366660000D03*
%TD*%
D20*
%TO.C,C101*%
X-61400000Y292900000D03*
X-58275000Y292900000D03*
%TD*%
D16*
%TO.C,C29*%
X89250000Y365250000D03*
X89250000Y362125000D03*
%TD*%
%TO.C,C67*%
X-99000000Y406250000D03*
X-99000000Y403125000D03*
%TD*%
D14*
%TO.C,D161*%
X-28700000Y386300000D03*
X-28700000Y387800000D03*
D15*
X-23000000Y387800000D03*
D14*
X-23000000Y386300000D03*
%TD*%
D17*
%TO.C,D17*%
X2000000Y403700000D03*
X2000000Y407000000D03*
%TD*%
D16*
%TO.C,C88*%
X-158000000Y430750000D03*
X-158000000Y427625000D03*
%TD*%
D14*
%TO.C,D135*%
X-167500000Y348100000D03*
X-167500000Y349600000D03*
D15*
X-161800000Y349600000D03*
D14*
X-161800000Y348100000D03*
%TD*%
D18*
%TO.C,D203*%
X-227400000Y366900000D03*
X-224200000Y366900000D03*
D19*
X-224200000Y362000000D03*
D18*
X-227400000Y362000000D03*
%TD*%
D14*
%TO.C,D171*%
X-219700000Y386300000D03*
X-219700000Y387800000D03*
D15*
X-214000000Y387800000D03*
D14*
X-214000000Y386300000D03*
%TD*%
%TO.C,D103*%
X72650000Y310000000D03*
X72650000Y311500000D03*
D15*
X78350000Y311500000D03*
D14*
X78350000Y310000000D03*
%TD*%
%TO.C,D118*%
X-81600000Y329000000D03*
X-81600000Y330500000D03*
D15*
X-75900000Y330500000D03*
D14*
X-75900000Y329000000D03*
%TD*%
D17*
%TO.C,D90*%
X103980000Y423890000D03*
X103980000Y427190000D03*
%TD*%
D14*
%TO.C,D127*%
X-14700000Y348100000D03*
X-14700000Y349600000D03*
D15*
X-9000000Y349600000D03*
D14*
X-9000000Y348100000D03*
%TD*%
D21*
%TO.C,C96*%
X38900000Y440200000D03*
X35775000Y440200000D03*
%TD*%
D17*
%TO.C,D62*%
X-179590000Y363340000D03*
X-179590000Y366640000D03*
%TD*%
D14*
%TO.C,D121*%
X-24300000Y329000000D03*
X-24300000Y330500000D03*
D15*
X-18600000Y330500000D03*
D14*
X-18600000Y329000000D03*
%TD*%
D17*
%TO.C,D8*%
X-225500000Y402950000D03*
X-225500000Y406250000D03*
%TD*%
%TO.C,D28*%
X-104000000Y403700000D03*
X-104000000Y407000000D03*
%TD*%
D16*
%TO.C,C19*%
X-132000000Y346000000D03*
X-132000000Y342875000D03*
%TD*%
%TO.C,C76*%
X89250000Y407125000D03*
X89250000Y404000000D03*
%TD*%
D14*
%TO.C,D156*%
X91800000Y386300000D03*
X91800000Y387800000D03*
D15*
X97500000Y387800000D03*
D14*
X97500000Y386300000D03*
%TD*%
%TO.C,D117*%
X-100700000Y329000000D03*
X-100700000Y330500000D03*
D15*
X-95000000Y330500000D03*
D14*
X-95000000Y329000000D03*
%TD*%
D17*
%TO.C,D7*%
X85030000Y423990000D03*
X85030000Y427290000D03*
%TD*%
D16*
%TO.C,C105*%
X-179750000Y327250000D03*
X-179750000Y324125000D03*
%TD*%
%TO.C,C61*%
X108250000Y384500000D03*
X108250000Y381375000D03*
%TD*%
%TO.C,C75*%
X69750000Y406875000D03*
X69750000Y403750000D03*
%TD*%
%TO.C,C21*%
X-93750000Y346000000D03*
X-93750000Y342875000D03*
%TD*%
%TO.C,C59*%
X69750000Y384250000D03*
X69750000Y381125000D03*
%TD*%
D17*
%TO.C,D46*%
X-21470000Y343850000D03*
X-21470000Y347150000D03*
%TD*%
D14*
%TO.C,D150*%
X18700000Y367200000D03*
X18700000Y368700000D03*
D15*
X24400000Y368700000D03*
D14*
X24400000Y367200000D03*
%TD*%
D16*
%TO.C,C31*%
X-221000000Y384375000D03*
X-221000000Y381250000D03*
%TD*%
D14*
%TO.C,D158*%
X38000000Y386300000D03*
X38000000Y387800000D03*
D15*
X43700000Y387800000D03*
D14*
X43700000Y386300000D03*
%TD*%
D17*
%TO.C,D32*%
X-160300000Y363380000D03*
X-160300000Y366680000D03*
%TD*%
D16*
%TO.C,C43*%
X-3000000Y365000000D03*
X-3000000Y361875000D03*
%TD*%
%TO.C,C82*%
X-31500000Y430875000D03*
X-31500000Y427750000D03*
%TD*%
D17*
%TO.C,D75*%
X-45700000Y363220000D03*
X-45700000Y366520000D03*
%TD*%
D16*
%TO.C,C109*%
X-226500000Y304200000D03*
X-226500000Y301075000D03*
%TD*%
%TO.C,C57*%
X7000000Y384000000D03*
X7000000Y380875000D03*
%TD*%
D11*
%TO.C,D221*%
X81700000Y439900000D03*
X81700000Y436700000D03*
D12*
X76800000Y436700000D03*
D11*
X76800000Y439900000D03*
%TD*%
D16*
%TO.C,C106*%
X-141750000Y326750000D03*
X-141750000Y323625000D03*
%TD*%
D17*
%TO.C,D84*%
X-111690000Y383130000D03*
X-111690000Y386430000D03*
%TD*%
D22*
%TO.C,C114*%
X128500000Y423175000D03*
X128500000Y426300000D03*
%TD*%
D14*
%TO.C,D125*%
X35200000Y348100000D03*
X35200000Y349600000D03*
D15*
X40900000Y349600000D03*
D14*
X40900000Y348100000D03*
%TD*%
D11*
%TO.C,D222*%
X52900000Y440100000D03*
X52900000Y436900000D03*
D12*
X48000000Y436900000D03*
D11*
X48000000Y440100000D03*
%TD*%
D14*
%TO.C,D184*%
X-144300000Y408400000D03*
X-144300000Y409900000D03*
D15*
X-138600000Y409900000D03*
D14*
X-138600000Y408400000D03*
%TD*%
%TO.C,D149*%
X-400000Y367200000D03*
X-400000Y368700000D03*
D15*
X5300000Y368700000D03*
D14*
X5300000Y367200000D03*
%TD*%
D17*
%TO.C,D34*%
X35750000Y305920000D03*
X35750000Y309220000D03*
%TD*%
D16*
%TO.C,C30*%
X70250000Y365250000D03*
X70250000Y362125000D03*
%TD*%
D17*
%TO.C,D55*%
X-40700000Y343770000D03*
X-40700000Y347070000D03*
%TD*%
D16*
%TO.C,C15*%
X-215000000Y346250000D03*
X-215000000Y343125000D03*
%TD*%
%TO.C,C12*%
X-7500000Y327000000D03*
X-7500000Y323875000D03*
%TD*%
%TO.C,C90*%
X-227100000Y379525000D03*
X-227100000Y376400000D03*
%TD*%
%TO.C,C85*%
X-96750000Y430750000D03*
X-96750000Y427625000D03*
%TD*%
D14*
%TO.C,D113*%
X-177200000Y329100000D03*
X-177200000Y330600000D03*
D15*
X-171500000Y330600000D03*
D14*
X-171500000Y329100000D03*
%TD*%
%TO.C,D163*%
X-66900000Y386300000D03*
X-66900000Y387800000D03*
D15*
X-61200000Y387800000D03*
D14*
X-61200000Y386300000D03*
%TD*%
D20*
%TO.C,C99*%
X77075000Y293500000D03*
X80200000Y293500000D03*
%TD*%
D14*
%TO.C,D170*%
X-200600000Y386300000D03*
X-200600000Y387800000D03*
D15*
X-194900000Y387800000D03*
D14*
X-194900000Y386300000D03*
%TD*%
D17*
%TO.C,D79*%
X-58200000Y427100000D03*
X-58200000Y430400000D03*
%TD*%
%TO.C,D12*%
X-146080000Y325030000D03*
X-146080000Y328330000D03*
%TD*%
D22*
%TO.C,C113*%
X128300000Y391500000D03*
X128300000Y394625000D03*
%TD*%
D18*
%TO.C,D204*%
X-225800000Y346900000D03*
X-222600000Y346900000D03*
D19*
X-222600000Y342000000D03*
D18*
X-225800000Y342000000D03*
%TD*%
D16*
%TO.C,C17*%
X-170250000Y346250000D03*
X-170250000Y343125000D03*
%TD*%
D14*
%TO.C,D192*%
X13320000Y432900000D03*
X13320000Y434400000D03*
D15*
X19020000Y434400000D03*
D14*
X19020000Y432900000D03*
%TD*%
D11*
%TO.C,D230*%
X-207600000Y444400000D03*
X-207600000Y441200000D03*
D12*
X-212500000Y441200000D03*
D11*
X-212500000Y444400000D03*
%TD*%
D17*
%TO.C,D26*%
X-12170000Y324710000D03*
X-12170000Y328010000D03*
%TD*%
D11*
%TO.C,D201*%
X-212800000Y425200000D03*
X-212800000Y422000000D03*
D12*
X-217700000Y422000000D03*
D11*
X-217700000Y425200000D03*
%TD*%
D17*
%TO.C,D61*%
X-206400000Y382740000D03*
X-206400000Y386040000D03*
%TD*%
D14*
%TO.C,D136*%
X-186600000Y348100000D03*
X-186600000Y349600000D03*
D15*
X-180900000Y349600000D03*
D14*
X-180900000Y348100000D03*
%TD*%
D11*
%TO.C,D227*%
X-99500000Y441400000D03*
X-99500000Y438200000D03*
D12*
X-104400000Y438200000D03*
D11*
X-104400000Y441400000D03*
%TD*%
D14*
%TO.C,D132*%
X-110200000Y348100000D03*
X-110200000Y349600000D03*
D15*
X-104500000Y349600000D03*
D14*
X-104500000Y348100000D03*
%TD*%
%TO.C,D177*%
X9200000Y408400000D03*
X9200000Y409900000D03*
D15*
X14900000Y409900000D03*
D14*
X14900000Y408400000D03*
%TD*%
D16*
%TO.C,C22*%
X-75000000Y346000000D03*
X-75000000Y342875000D03*
%TD*%
%TO.C,C81*%
X10500000Y430875000D03*
X10500000Y427750000D03*
%TD*%
D14*
%TO.C,D126*%
X4400000Y348100000D03*
X4400000Y349600000D03*
D15*
X10100000Y349600000D03*
D14*
X10100000Y348100000D03*
%TD*%
D17*
%TO.C,D80*%
X85000000Y381700000D03*
X85000000Y385000000D03*
%TD*%
D14*
%TO.C,D144*%
X-96000000Y367200000D03*
X-96000000Y368700000D03*
D15*
X-90300000Y368700000D03*
D14*
X-90300000Y367200000D03*
%TD*%
%TO.C,D129*%
X-52900000Y348100000D03*
X-52900000Y349600000D03*
D15*
X-47200000Y349600000D03*
D14*
X-47200000Y348100000D03*
%TD*%
D17*
%TO.C,D65*%
X-64690000Y363270000D03*
X-64690000Y366570000D03*
%TD*%
D16*
%TO.C,C26*%
X1750000Y346250000D03*
X1750000Y343125000D03*
%TD*%
%TO.C,C125*%
X-101500000Y308000000D03*
X-101500000Y304875000D03*
%TD*%
D14*
%TO.C,D131*%
X-91100000Y348100000D03*
X-91100000Y349600000D03*
D15*
X-85400000Y349600000D03*
D14*
X-85400000Y348100000D03*
%TD*%
D17*
%TO.C,D36*%
X15500000Y319200000D03*
X15500000Y322500000D03*
%TD*%
D16*
%TO.C,C70*%
X-41750000Y406500000D03*
X-41750000Y403375000D03*
%TD*%
%TO.C,C7*%
X-103250000Y327000000D03*
X-103250000Y323875000D03*
%TD*%
%TO.C,C71*%
X-12750000Y406500000D03*
X-12750000Y403375000D03*
%TD*%
D17*
%TO.C,D40*%
X85990000Y403630000D03*
X85990000Y406930000D03*
%TD*%
%TO.C,D19*%
X-143240000Y427570000D03*
X-143240000Y430870000D03*
%TD*%
%TO.C,D38*%
X-84000000Y403700000D03*
X-84000000Y407000000D03*
%TD*%
D16*
%TO.C,C128*%
X-210500000Y327000000D03*
X-210500000Y323875000D03*
%TD*%
%TO.C,C84*%
X-73500000Y431000000D03*
X-73500000Y427875000D03*
%TD*%
%TO.C,C63*%
X-185500000Y406500000D03*
X-185500000Y403375000D03*
%TD*%
%TO.C,C5*%
X-7200000Y308200000D03*
X-7200000Y305075000D03*
%TD*%
D14*
%TO.C,D174*%
X72250000Y408800000D03*
X72250000Y410300000D03*
D15*
X77950000Y410300000D03*
D14*
X77950000Y408800000D03*
%TD*%
D16*
%TO.C,C83*%
X-54500000Y431000000D03*
X-54500000Y427875000D03*
%TD*%
D21*
%TO.C,C130*%
X-206075000Y310500000D03*
X-209200000Y310500000D03*
%TD*%
D14*
%TO.C,D106*%
X-3950000Y310000000D03*
X-3950000Y311500000D03*
D15*
X1750000Y311500000D03*
D14*
X1750000Y310000000D03*
%TD*%
D17*
%TO.C,D37*%
X66140000Y423890000D03*
X66140000Y427190000D03*
%TD*%
%TO.C,D59*%
X-16725518Y427760000D03*
X-16725518Y431060000D03*
%TD*%
D16*
%TO.C,C47*%
X-184000000Y384125000D03*
X-184000000Y381000000D03*
%TD*%
D14*
%TO.C,D176*%
X28300000Y408400000D03*
X28300000Y409900000D03*
D15*
X34000000Y409900000D03*
D14*
X34000000Y408400000D03*
%TD*%
D17*
%TO.C,D24*%
X-98050000Y343880000D03*
X-98050000Y347180000D03*
%TD*%
D11*
%TO.C,D214*%
X93100000Y293000000D03*
X93100000Y296200000D03*
D13*
X98000000Y296200000D03*
D11*
X98000000Y293000000D03*
%TD*%
D14*
%TO.C,D119*%
X-62500000Y329000000D03*
X-62500000Y330500000D03*
D15*
X-56800000Y330500000D03*
D14*
X-56800000Y329000000D03*
%TD*%
%TO.C,D199*%
X-136400000Y432900000D03*
X-136400000Y434400000D03*
D15*
X-130700000Y434400000D03*
D14*
X-130700000Y432900000D03*
%TD*%
%TO.C,D197*%
X-94190000Y432900000D03*
X-94190000Y434400000D03*
D15*
X-88490000Y434400000D03*
D14*
X-88490000Y432900000D03*
%TD*%
%TO.C,D145*%
X-76800000Y367250000D03*
X-76800000Y368750000D03*
D15*
X-71100000Y368750000D03*
D14*
X-71100000Y367250000D03*
%TD*%
%TO.C,D114*%
X-158000000Y329000000D03*
X-158000000Y330500000D03*
D15*
X-152300000Y330500000D03*
D14*
X-152300000Y329000000D03*
%TD*%
%TO.C,D193*%
X-9785518Y432900000D03*
X-9785518Y434400000D03*
D15*
X-4085518Y434400000D03*
D14*
X-4085518Y432900000D03*
%TD*%
D17*
%TO.C,D87*%
X2780000Y383590000D03*
X2780000Y386890000D03*
%TD*%
%TO.C,D99*%
X-101030000Y427620000D03*
X-101030000Y430920000D03*
%TD*%
%TO.C,D100*%
X104790000Y403400000D03*
X104790000Y406700000D03*
%TD*%
D14*
%TO.C,D151*%
X42300000Y367200000D03*
X42300000Y368700000D03*
D15*
X48000000Y368700000D03*
D14*
X48000000Y367200000D03*
%TD*%
%TO.C,D120*%
X-43400000Y329000000D03*
X-43400000Y330500000D03*
D15*
X-37700000Y330500000D03*
D14*
X-37700000Y329000000D03*
%TD*%
D11*
%TO.C,D212*%
X7900000Y293000000D03*
X7900000Y296200000D03*
D13*
X12800000Y296200000D03*
D11*
X12800000Y293000000D03*
%TD*%
D16*
%TO.C,C16*%
X-189000000Y346000000D03*
X-189000000Y342875000D03*
%TD*%
D17*
%TO.C,D78*%
X-170000000Y403700000D03*
X-170000000Y407000000D03*
%TD*%
D14*
%TO.C,D185*%
X-163400000Y408400000D03*
X-163400000Y409900000D03*
D15*
X-157700000Y409900000D03*
D14*
X-157700000Y408400000D03*
%TD*%
D16*
%TO.C,C35*%
X-156000000Y365250000D03*
X-156000000Y362125000D03*
%TD*%
D22*
%TO.C,C126*%
X128700000Y309475000D03*
X128700000Y312600000D03*
%TD*%
D14*
%TO.C,D108*%
X-98709764Y309973913D03*
X-98709764Y311473913D03*
D15*
X-93009764Y311473913D03*
D14*
X-93009764Y309973913D03*
%TD*%
D21*
%TO.C,C95*%
X67800000Y440200000D03*
X64675000Y440200000D03*
%TD*%
D17*
%TO.C,D72*%
X-174250000Y344130000D03*
X-174250000Y347430000D03*
%TD*%
D11*
%TO.C,D208*%
X-145900000Y293700000D03*
X-145900000Y296900000D03*
D13*
X-141000000Y296900000D03*
D11*
X-141000000Y293700000D03*
%TD*%
D17*
%TO.C,D39*%
X25540000Y428070000D03*
X25540000Y431370000D03*
%TD*%
D16*
%TO.C,C53*%
X-69500000Y384250000D03*
X-69500000Y381125000D03*
%TD*%
D20*
%TO.C,C131*%
X-172600000Y426600000D03*
X-169475000Y426600000D03*
%TD*%
D17*
%TO.C,D22*%
X-155240000Y344050000D03*
X-155240000Y347350000D03*
%TD*%
D16*
%TO.C,C52*%
X-88750000Y384375000D03*
X-88750000Y381250000D03*
%TD*%
D17*
%TO.C,D56*%
X-2510000Y343910000D03*
X-2510000Y347210000D03*
%TD*%
%TO.C,D35*%
X-31130000Y324830000D03*
X-31130000Y328130000D03*
%TD*%
D14*
%TO.C,D164*%
X-86000000Y386300000D03*
X-86000000Y387800000D03*
D15*
X-80300000Y387800000D03*
D14*
X-80300000Y386300000D03*
%TD*%
D16*
%TO.C,C20*%
X-113000000Y346250000D03*
X-113000000Y343125000D03*
%TD*%
%TO.C,C38*%
X-98750000Y365250000D03*
X-98750000Y362125000D03*
%TD*%
%TO.C,C1*%
X89000000Y308125000D03*
X89000000Y305000000D03*
%TD*%
D11*
%TO.C,D229*%
X-158200000Y442400000D03*
X-158200000Y439200000D03*
D12*
X-163100000Y439200000D03*
D11*
X-163100000Y442400000D03*
%TD*%
D16*
%TO.C,C74*%
X44500000Y406500000D03*
X44500000Y403375000D03*
%TD*%
D14*
%TO.C,D155*%
X110900000Y386300000D03*
X110900000Y387800000D03*
D15*
X116600000Y387800000D03*
D14*
X116600000Y386300000D03*
%TD*%
D17*
%TO.C,D82*%
X-164800000Y325030000D03*
X-164800000Y328330000D03*
%TD*%
D14*
%TO.C,D146*%
X-57700000Y367200000D03*
X-57700000Y368700000D03*
D15*
X-52000000Y368700000D03*
D14*
X-52000000Y367200000D03*
%TD*%
D11*
%TO.C,D206*%
X-225000000Y293300000D03*
X-225000000Y296500000D03*
D13*
X-220100000Y296500000D03*
D11*
X-220100000Y293300000D03*
%TD*%
D16*
%TO.C,C14*%
X89250000Y327000000D03*
X89250000Y323875000D03*
%TD*%
D20*
%TO.C,C123*%
X-162200000Y293400000D03*
X-159075000Y293400000D03*
%TD*%
D14*
%TO.C,D141*%
X-153200000Y367200000D03*
X-153200000Y368700000D03*
D15*
X-147500000Y368700000D03*
D14*
X-147500000Y367200000D03*
%TD*%
D17*
%TO.C,D31*%
X-224110000Y323120000D03*
X-224110000Y326420000D03*
%TD*%
D14*
%TO.C,D173*%
X92500000Y408800000D03*
X92500000Y410300000D03*
D15*
X98200000Y410300000D03*
D14*
X98200000Y408800000D03*
%TD*%
D17*
%TO.C,D67*%
X11660000Y363180000D03*
X11660000Y366480000D03*
%TD*%
%TO.C,D49*%
X-35725518Y427670000D03*
X-35725518Y430970000D03*
%TD*%
D14*
%TO.C,D189*%
X91900000Y427900000D03*
X91900000Y429400000D03*
D15*
X97600000Y429400000D03*
D14*
X97600000Y427900000D03*
%TD*%
%TO.C,D188*%
X110900000Y427901692D03*
X110900000Y429401692D03*
D15*
X116600000Y429401692D03*
D14*
X116600000Y427901692D03*
%TD*%
D16*
%TO.C,C89*%
X-225900000Y356100000D03*
X-225900000Y352975000D03*
%TD*%
D14*
%TO.C,D130*%
X-72000000Y348100000D03*
X-72000000Y349600000D03*
D15*
X-66300000Y349600000D03*
D14*
X-66300000Y348100000D03*
%TD*%
D17*
%TO.C,D43*%
X-150050000Y383070000D03*
X-150050000Y386370000D03*
%TD*%
%TO.C,D15*%
X84980000Y306300000D03*
X84980000Y309600000D03*
%TD*%
D14*
%TO.C,D138*%
X-215100000Y367200000D03*
X-215100000Y368700000D03*
D15*
X-209400000Y368700000D03*
D14*
X-209400000Y367200000D03*
%TD*%
D17*
%TO.C,D68*%
X-191000000Y403700000D03*
X-191000000Y407000000D03*
%TD*%
D14*
%TO.C,D110*%
X-193750000Y310000000D03*
X-193750000Y311500000D03*
D15*
X-188050000Y311500000D03*
D14*
X-188050000Y310000000D03*
%TD*%
D17*
%TO.C,D52*%
X-188400000Y382870000D03*
X-188400000Y386170000D03*
%TD*%
D16*
%TO.C,C34*%
X-175000000Y365250000D03*
X-175000000Y362125000D03*
%TD*%
D14*
%TO.C,D112*%
X-207927270Y329066162D03*
X-207927270Y330566162D03*
D15*
X-202227270Y330566162D03*
D14*
X-202227270Y329066162D03*
%TD*%
D17*
%TO.C,D57*%
X22000000Y402700000D03*
X22000000Y406000000D03*
%TD*%
D14*
%TO.C,D148*%
X-19500000Y367200000D03*
X-19500000Y368700000D03*
D15*
X-13800000Y368700000D03*
D14*
X-13800000Y367200000D03*
%TD*%
D17*
%TO.C,D96*%
X-16270000Y383460000D03*
X-16270000Y386760000D03*
%TD*%
D16*
%TO.C,C2*%
X70000000Y307625000D03*
X70000000Y304500000D03*
%TD*%
%TO.C,C66*%
X-128000000Y406500000D03*
X-128000000Y403375000D03*
%TD*%
%TO.C,C62*%
X-222150000Y406350000D03*
X-222150000Y403225000D03*
%TD*%
%TO.C,C92*%
X70000000Y426125000D03*
X70000000Y423000000D03*
%TD*%
%TO.C,C24*%
X-36250000Y346125000D03*
X-36250000Y343000000D03*
%TD*%
D14*
%TO.C,D124*%
X91800000Y329000000D03*
X91800000Y330500000D03*
D15*
X97500000Y330500000D03*
D14*
X97500000Y329000000D03*
%TD*%
D21*
%TO.C,C116*%
X-87775000Y440100000D03*
X-90900000Y440100000D03*
%TD*%
%TO.C,C97*%
X10800000Y440700000D03*
X7675000Y440700000D03*
%TD*%
D16*
%TO.C,C50*%
X-126750000Y384375000D03*
X-126750000Y381250000D03*
%TD*%
D17*
%TO.C,D91*%
X-194890000Y344210000D03*
X-194890000Y347510000D03*
%TD*%
D16*
%TO.C,C129*%
X-196250000Y308000000D03*
X-196250000Y304875000D03*
%TD*%
D17*
%TO.C,D77*%
X33100000Y363130000D03*
X33100000Y366430000D03*
%TD*%
D14*
%TO.C,D168*%
X-162400000Y386300000D03*
X-162400000Y387800000D03*
D15*
X-156700000Y387800000D03*
D14*
X-156700000Y386300000D03*
%TD*%
D17*
%TO.C,D44*%
X-69390000Y324990000D03*
X-69390000Y328290000D03*
%TD*%
D16*
%TO.C,C37*%
X-117750000Y365250000D03*
X-117750000Y362125000D03*
%TD*%
D14*
%TO.C,D133*%
X-129300000Y348100000D03*
X-129300000Y349600000D03*
D15*
X-123600000Y349600000D03*
D14*
X-123600000Y348100000D03*
%TD*%
D17*
%TO.C,D10*%
X105250000Y381700000D03*
X105250000Y385000000D03*
%TD*%
D16*
%TO.C,C8*%
X-84000000Y327000000D03*
X-84000000Y323875000D03*
%TD*%
D14*
%TO.C,D116*%
X-119800000Y329000000D03*
X-119800000Y330500000D03*
D15*
X-114100000Y330500000D03*
D14*
X-114100000Y329000000D03*
%TD*%
D16*
%TO.C,C51*%
X-107750000Y384375000D03*
X-107750000Y381250000D03*
%TD*%
D14*
%TO.C,D123*%
X30300000Y329000000D03*
X30300000Y330500000D03*
D15*
X36000000Y330500000D03*
D14*
X36000000Y329000000D03*
%TD*%
D17*
%TO.C,D58*%
X-45000000Y403700000D03*
X-45000000Y407000000D03*
%TD*%
D16*
%TO.C,C48*%
X-165000000Y384375000D03*
X-165000000Y381250000D03*
%TD*%
D14*
%TO.C,D142*%
X-134200000Y367200000D03*
X-134200000Y368700000D03*
D15*
X-128500000Y368700000D03*
D14*
X-128500000Y367200000D03*
%TD*%
D16*
%TO.C,C104*%
X-160600000Y327000000D03*
X-160600000Y323875000D03*
%TD*%
D14*
%TO.C,D169*%
X-181500000Y386300000D03*
X-181500000Y387800000D03*
D15*
X-175800000Y387800000D03*
D14*
X-175800000Y386300000D03*
%TD*%
D21*
%TO.C,C98*%
X-27500000Y440600000D03*
X-30625000Y440600000D03*
%TD*%
D14*
%TO.C,D194*%
X-28885518Y432900000D03*
X-28885518Y434400000D03*
D15*
X-23185518Y434400000D03*
D14*
X-23185518Y432900000D03*
%TD*%
D16*
%TO.C,C73*%
X25500000Y406250000D03*
X25500000Y403125000D03*
%TD*%
%TO.C,C56*%
X-12250000Y384250000D03*
X-12250000Y381125000D03*
%TD*%
D11*
%TO.C,D220*%
X127900000Y439100000D03*
X127900000Y435900000D03*
D12*
X123000000Y435900000D03*
D11*
X123000000Y439100000D03*
%TD*%
D14*
%TO.C,D186*%
X-182500000Y408400000D03*
X-182500000Y409900000D03*
D15*
X-176800000Y409900000D03*
D14*
X-176800000Y408400000D03*
%TD*%
D17*
%TO.C,D6*%
X104230000Y306260000D03*
X104230000Y309560000D03*
%TD*%
D16*
%TO.C,C33*%
X-194000000Y365250000D03*
X-194000000Y362125000D03*
%TD*%
D17*
%TO.C,D98*%
X-132000000Y403700000D03*
X-132000000Y407000000D03*
%TD*%
%TO.C,D5*%
X65700000Y306210000D03*
X65700000Y309510000D03*
%TD*%
D16*
%TO.C,C78*%
X108250000Y426125000D03*
X108250000Y423000000D03*
%TD*%
D17*
%TO.C,D60*%
X85120000Y363150000D03*
X85120000Y366450000D03*
%TD*%
%TO.C,D50*%
X65770000Y363220000D03*
X65770000Y366520000D03*
%TD*%
D21*
%TO.C,C115*%
X-58500000Y440700000D03*
X-61625000Y440700000D03*
%TD*%
D14*
%TO.C,D101*%
X111150000Y310000000D03*
X111150000Y311500000D03*
D15*
X116850000Y311500000D03*
D14*
X116850000Y310000000D03*
%TD*%
D16*
%TO.C,C10*%
X-46000000Y327000000D03*
X-46000000Y323875000D03*
%TD*%
%TO.C,C6*%
X-122500000Y327250000D03*
X-122500000Y324125000D03*
%TD*%
%TO.C,C86*%
X-115750000Y430750000D03*
X-115750000Y427625000D03*
%TD*%
D17*
%TO.C,D73*%
X-116930000Y343940000D03*
X-116930000Y347240000D03*
%TD*%
D16*
%TO.C,C36*%
X-137000000Y365250000D03*
X-137000000Y362125000D03*
%TD*%
D14*
%TO.C,D139*%
X-191400000Y367200000D03*
X-191400000Y368700000D03*
D15*
X-185700000Y368700000D03*
D14*
X-185700000Y367200000D03*
%TD*%
%TO.C,D109*%
X-169937302Y309973913D03*
X-169937302Y311473913D03*
D15*
X-164237302Y311473913D03*
D14*
X-164237302Y309973913D03*
%TD*%
D17*
%TO.C,D14*%
X-88310000Y325070000D03*
X-88310000Y328370000D03*
%TD*%
D16*
%TO.C,C3*%
X40500000Y308000000D03*
X40500000Y304875000D03*
%TD*%
%TO.C,C69*%
X-61000000Y406500000D03*
X-61000000Y403375000D03*
%TD*%
D14*
%TO.C,D160*%
X-9600000Y386300000D03*
X-9600000Y387800000D03*
D15*
X-3900000Y387800000D03*
D14*
X-3900000Y386300000D03*
%TD*%
D11*
%TO.C,D228*%
X-125900000Y442300000D03*
X-125900000Y439100000D03*
D12*
X-130800000Y439100000D03*
D11*
X-130800000Y442300000D03*
%TD*%
D14*
%TO.C,D178*%
X-9900000Y408400000D03*
X-9900000Y409900000D03*
D15*
X-4200000Y409900000D03*
D14*
X-4200000Y408400000D03*
%TD*%
%TO.C,D102*%
X91900000Y310000000D03*
X91900000Y311500000D03*
D15*
X97600000Y311500000D03*
D14*
X97600000Y310000000D03*
%TD*%
D11*
%TO.C,D226*%
X-74500000Y441400000D03*
X-74500000Y438200000D03*
D12*
X-79400000Y438200000D03*
D11*
X-79400000Y441400000D03*
%TD*%
D16*
%TO.C,C49*%
X-146000000Y384375000D03*
X-146000000Y381250000D03*
%TD*%
D17*
%TO.C,D94*%
X-92840000Y383270000D03*
X-92840000Y386570000D03*
%TD*%
%TO.C,D9*%
X-162900000Y427710000D03*
X-162900000Y431010000D03*
%TD*%
D14*
%TO.C,D137*%
X-212700000Y348100000D03*
X-212700000Y349600000D03*
D15*
X-207000000Y349600000D03*
D14*
X-207000000Y348100000D03*
%TD*%
D11*
%TO.C,D207*%
X-180800000Y293500000D03*
X-180800000Y296700000D03*
D13*
X-175900000Y296700000D03*
D11*
X-175900000Y293500000D03*
%TD*%
D14*
%TO.C,D162*%
X-47800000Y386300000D03*
X-47800000Y387800000D03*
D15*
X-42100000Y387800000D03*
D14*
X-42100000Y386300000D03*
%TD*%
%TO.C,D179*%
X-38900000Y408400000D03*
X-38900000Y409900000D03*
D15*
X-33200000Y409900000D03*
D14*
X-33200000Y408400000D03*
%TD*%
D16*
%TO.C,C4*%
X17250000Y307750000D03*
X17250000Y304625000D03*
%TD*%
D17*
%TO.C,D41*%
X-223570000Y305620000D03*
X-223570000Y308920000D03*
%TD*%
D22*
%TO.C,C91*%
X128300000Y339500000D03*
X128300000Y342625000D03*
%TD*%
D14*
%TO.C,D128*%
X-33900000Y348100000D03*
X-33900000Y349600000D03*
D15*
X-28200000Y349600000D03*
D14*
X-28200000Y348100000D03*
%TD*%
%TO.C,D122*%
X-5200000Y329000000D03*
X-5200000Y330500000D03*
D15*
X500000Y330500000D03*
D14*
X500000Y329000000D03*
%TD*%
D16*
%TO.C,C68*%
X-79750000Y406250000D03*
X-79750000Y403125000D03*
%TD*%
D14*
%TO.C,D180*%
X-58000000Y408400000D03*
X-58000000Y409900000D03*
D15*
X-52300000Y409900000D03*
D14*
X-52300000Y408400000D03*
%TD*%
%TO.C,D191*%
X32420000Y432900000D03*
X32420000Y434400000D03*
D15*
X38120000Y434400000D03*
D14*
X38120000Y432900000D03*
%TD*%
D17*
%TO.C,D85*%
X-73600000Y383330000D03*
X-73600000Y386630000D03*
%TD*%
D14*
%TO.C,D181*%
X-77100000Y408400000D03*
X-77100000Y409900000D03*
D15*
X-71400000Y409900000D03*
D14*
X-71400000Y408400000D03*
%TD*%
D17*
%TO.C,D70*%
X66510000Y381670000D03*
X66510000Y384970000D03*
%TD*%
D16*
%TO.C,C46*%
X-203250000Y384375000D03*
X-203250000Y381250000D03*
%TD*%
D21*
%TO.C,C94*%
X105625000Y439800000D03*
X102500000Y439800000D03*
%TD*%
D16*
%TO.C,C65*%
X-147000000Y406250000D03*
X-147000000Y403125000D03*
%TD*%
D18*
%TO.C,D218*%
X128500000Y376500000D03*
X125300000Y376500000D03*
D23*
X125300000Y381400000D03*
D18*
X128500000Y381400000D03*
%TD*%
D17*
%TO.C,D4*%
X12540000Y305780000D03*
X12540000Y309080000D03*
%TD*%
D16*
%TO.C,C124*%
X-30500000Y308125000D03*
X-30500000Y305000000D03*
%TD*%
D17*
%TO.C,D16*%
X84270000Y324860000D03*
X84270000Y328160000D03*
%TD*%
D14*
%TO.C,D196*%
X-71085518Y432900000D03*
X-71085518Y434400000D03*
D15*
X-65385518Y434400000D03*
D14*
X-65385518Y432900000D03*
%TD*%
D17*
%TO.C,D42*%
X-169220000Y383000000D03*
X-169220000Y386300000D03*
%TD*%
%TO.C,D74*%
X-83750000Y363290000D03*
X-83750000Y366590000D03*
%TD*%
D18*
%TO.C,D216*%
X128700000Y327600000D03*
X125500000Y327600000D03*
D23*
X125500000Y332500000D03*
D18*
X128700000Y332500000D03*
%TD*%
D17*
%TO.C,D21*%
X-218800000Y344270000D03*
X-218800000Y347570000D03*
%TD*%
%TO.C,D11*%
X-221560000Y363230000D03*
X-221560000Y366530000D03*
%TD*%
D11*
%TO.C,D213*%
X59900000Y293000000D03*
X59900000Y296200000D03*
D13*
X64800000Y296200000D03*
D11*
X64800000Y293000000D03*
%TD*%
D20*
%TO.C,C102*%
X-131700000Y293200000D03*
X-128575000Y293200000D03*
%TD*%
D16*
%TO.C,C39*%
X-79250000Y365250000D03*
X-79250000Y362125000D03*
%TD*%
D17*
%TO.C,D27*%
X40800000Y403700000D03*
X40800000Y407000000D03*
%TD*%
D16*
%TO.C,C107*%
X-220000000Y308000000D03*
X-220000000Y304875000D03*
%TD*%
D14*
%TO.C,D154*%
X110900000Y367200000D03*
X110900000Y368700000D03*
D15*
X116600000Y368700000D03*
D14*
X116600000Y367200000D03*
%TD*%
%TO.C,D167*%
X-143300000Y386300000D03*
X-143300000Y387800000D03*
D15*
X-137600000Y387800000D03*
D14*
X-137600000Y386300000D03*
%TD*%
D17*
%TO.C,D48*%
X-64000000Y403700000D03*
X-64000000Y407000000D03*
%TD*%
%TO.C,D93*%
X-131330000Y383130000D03*
X-131330000Y386430000D03*
%TD*%
D14*
%TO.C,D157*%
X72700000Y386300000D03*
X72700000Y387800000D03*
D15*
X78400000Y387800000D03*
D14*
X78400000Y386300000D03*
%TD*%
D17*
%TO.C,D97*%
X21000000Y380500000D03*
X21000000Y383800000D03*
%TD*%
D14*
%TO.C,D198*%
X-113290000Y432900000D03*
X-113290000Y434400000D03*
D15*
X-107590000Y434400000D03*
D14*
X-107590000Y432900000D03*
%TD*%
D16*
%TO.C,C80*%
X29750000Y431125000D03*
X29750000Y428000000D03*
%TD*%
%TO.C,C111*%
X107900000Y308000000D03*
X107900000Y304875000D03*
%TD*%
%TO.C,C127*%
X-172800000Y308325000D03*
X-172800000Y305200000D03*
%TD*%
D20*
%TO.C,C120*%
X108175000Y293700000D03*
X111300000Y293700000D03*
%TD*%
D21*
%TO.C,C103*%
X-179100000Y333700000D03*
X-182225000Y333700000D03*
%TD*%
D16*
%TO.C,C44*%
X16000000Y365250000D03*
X16000000Y362125000D03*
%TD*%
D17*
%TO.C,D20*%
X104100000Y363040000D03*
X104100000Y366340000D03*
%TD*%
%TO.C,D3*%
X-36100000Y305640000D03*
X-36100000Y308940000D03*
%TD*%
D16*
%TO.C,C72*%
X6500000Y406500000D03*
X6500000Y403375000D03*
%TD*%
D14*
%TO.C,D153*%
X91800000Y367200000D03*
X91800000Y368700000D03*
D15*
X97500000Y368700000D03*
D14*
X97500000Y367200000D03*
%TD*%
D18*
%TO.C,D217*%
X128400000Y350800000D03*
X125200000Y350800000D03*
D23*
X125200000Y355700000D03*
D18*
X128400000Y355700000D03*
%TD*%
D17*
%TO.C,D29*%
X5250000Y427950000D03*
X5250000Y431250000D03*
%TD*%
D16*
%TO.C,C54*%
X-51000000Y384250000D03*
X-51000000Y381125000D03*
%TD*%
D17*
%TO.C,D76*%
X-6960000Y363080000D03*
X-6960000Y366380000D03*
%TD*%
D16*
%TO.C,C32*%
X-218000000Y365250000D03*
X-218000000Y362125000D03*
%TD*%
D14*
%TO.C,D134*%
X-148400000Y348100000D03*
X-148400000Y349600000D03*
D15*
X-142700000Y349600000D03*
D14*
X-142700000Y348100000D03*
%TD*%
D17*
%TO.C,D25*%
X-50060000Y324910000D03*
X-50060000Y328210000D03*
%TD*%
D16*
%TO.C,C27*%
X32500000Y346250000D03*
X32500000Y343125000D03*
%TD*%
D17*
%TO.C,D13*%
X-126700000Y324950000D03*
X-126700000Y328250000D03*
%TD*%
D14*
%TO.C,D105*%
X19800000Y310000000D03*
X19800000Y311500000D03*
D15*
X25500000Y311500000D03*
D14*
X25500000Y310000000D03*
%TD*%
D17*
%TO.C,D51*%
X-200370000Y363210000D03*
X-200370000Y366510000D03*
%TD*%
%TO.C,D33*%
X-141180000Y363360000D03*
X-141180000Y366660000D03*
%TD*%
%TO.C,D86*%
X-35570000Y383330000D03*
X-35570000Y386630000D03*
%TD*%
%TO.C,D92*%
X-178350000Y305590000D03*
X-178350000Y308890000D03*
%TD*%
D14*
%TO.C,D111*%
X-217401971Y309952052D03*
X-217401971Y311452052D03*
D15*
X-211701971Y311452052D03*
D14*
X-211701971Y309952052D03*
%TD*%
D17*
%TO.C,D95*%
X-54750000Y383270000D03*
X-54750000Y386570000D03*
%TD*%
D16*
%TO.C,C25*%
X-17250000Y345750000D03*
X-17250000Y342625000D03*
%TD*%
D17*
%TO.C,D53*%
X-11330000Y305730000D03*
X-11330000Y309030000D03*
%TD*%
%TO.C,D2*%
X-107710000Y305540000D03*
X-107710000Y308840000D03*
%TD*%
D16*
%TO.C,C79*%
X89250000Y426000000D03*
X89250000Y422875000D03*
%TD*%
D20*
%TO.C,C121*%
X-19562500Y293400000D03*
X-16437500Y293400000D03*
%TD*%
D14*
%TO.C,D115*%
X-139000000Y329000000D03*
X-139000000Y330500000D03*
D15*
X-133300000Y330500000D03*
D14*
X-133300000Y329000000D03*
%TD*%
D17*
%TO.C,D1*%
X-223820000Y382740000D03*
X-223820000Y386040000D03*
%TD*%
D16*
%TO.C,C11*%
X-26750000Y327000000D03*
X-26750000Y323875000D03*
%TD*%
D14*
%TO.C,D195*%
X-51990000Y432900000D03*
X-51990000Y434400000D03*
D15*
X-46290000Y434400000D03*
D14*
X-46290000Y432900000D03*
%TD*%
D17*
%TO.C,D54*%
X-78820000Y343910000D03*
X-78820000Y347210000D03*
%TD*%
D16*
%TO.C,C40*%
X-60250000Y365000000D03*
X-60250000Y361875000D03*
%TD*%
D17*
%TO.C,D89*%
X-119850000Y427620000D03*
X-119850000Y430920000D03*
%TD*%
%TO.C,D66*%
X-26300000Y363220000D03*
X-26300000Y366520000D03*
%TD*%
D16*
%TO.C,C41*%
X-41250000Y365000000D03*
X-41250000Y361875000D03*
%TD*%
D14*
%TO.C,D107*%
X-27700000Y309973913D03*
X-27700000Y311473913D03*
D15*
X-22000000Y311473913D03*
D14*
X-22000000Y309973913D03*
%TD*%
D18*
%TO.C,D219*%
X128500000Y413900000D03*
D23*
X125300000Y413900000D03*
D18*
X125300000Y409000000D03*
X128500000Y409000000D03*
%TD*%
D21*
%TO.C,C119*%
X-216375000Y438400000D03*
X-219500000Y438400000D03*
%TD*%
D16*
%TO.C,C18*%
X-151000000Y346000000D03*
X-151000000Y342875000D03*
%TD*%
%TO.C,C13*%
X27750000Y327250000D03*
X27750000Y324125000D03*
%TD*%
%TO.C,C93*%
X-12250000Y431062500D03*
X-12250000Y427937500D03*
%TD*%
D17*
%TO.C,D30*%
X66500000Y403250000D03*
X66500000Y406550000D03*
%TD*%
D16*
%TO.C,C55*%
X-31500000Y384250000D03*
X-31500000Y381125000D03*
%TD*%
%TO.C,C45*%
X39750000Y365000000D03*
X39750000Y361875000D03*
%TD*%
D11*
%TO.C,D225*%
X-41100000Y441600000D03*
X-41100000Y438400000D03*
D12*
X-46000000Y438400000D03*
D11*
X-46000000Y441600000D03*
%TD*%
%TO.C,D210*%
X-80300000Y293500000D03*
X-80300000Y296700000D03*
D13*
X-75400000Y296700000D03*
D11*
X-75400000Y293500000D03*
%TD*%
D14*
%TO.C,D172*%
X111000000Y408800000D03*
X111000000Y410300000D03*
D15*
X116700000Y410300000D03*
D14*
X116700000Y408800000D03*
%TD*%
%TO.C,D152*%
X72700000Y367200000D03*
X72700000Y368700000D03*
D15*
X78400000Y368700000D03*
D14*
X78400000Y367200000D03*
%TD*%
%TO.C,D175*%
X47400000Y408400000D03*
X47400000Y409900000D03*
D15*
X53100000Y409900000D03*
D14*
X53100000Y408400000D03*
%TD*%
D18*
%TO.C,D205*%
X-226500000Y317300000D03*
X-223300000Y317300000D03*
D19*
X-223300000Y312400000D03*
D18*
X-226500000Y312400000D03*
%TD*%
D17*
%TO.C,D88*%
X-152000000Y403700000D03*
X-152000000Y407000000D03*
%TD*%
D11*
%TO.C,D223*%
X27500000Y441500000D03*
X27500000Y438300000D03*
D12*
X22600000Y438300000D03*
D11*
X22600000Y441500000D03*
%TD*%
D16*
%TO.C,C23*%
X-55750000Y346250000D03*
X-55750000Y343125000D03*
%TD*%
D11*
%TO.C,D211*%
X-41500000Y293700000D03*
X-41500000Y296900000D03*
D13*
X-36600000Y296900000D03*
D11*
X-36600000Y293700000D03*
%TD*%
D16*
%TO.C,C64*%
X-166250000Y406250000D03*
X-166250000Y403125000D03*
%TD*%
D14*
%TO.C,D140*%
X-172300000Y367200000D03*
X-172300000Y368700000D03*
D15*
X-166600000Y368700000D03*
D14*
X-166600000Y367200000D03*
%TD*%
D17*
%TO.C,D47*%
X19900000Y340900000D03*
X19900000Y344200000D03*
%TD*%
%TO.C,D83*%
X-121980000Y363250000D03*
X-121980000Y366550000D03*
%TD*%
%TO.C,D69*%
X-78200000Y427670000D03*
X-78200000Y430970000D03*
%TD*%
D20*
%TO.C,C122*%
X-98625000Y293200000D03*
X-95500000Y293200000D03*
%TD*%
D11*
%TO.C,D209*%
X-116700000Y293600000D03*
X-116700000Y296800000D03*
D13*
X-111800000Y296800000D03*
D11*
X-111800000Y293600000D03*
%TD*%
D14*
%TO.C,D165*%
X-105100000Y386300000D03*
X-105100000Y387800000D03*
D15*
X-99400000Y387800000D03*
D14*
X-99400000Y386300000D03*
%TD*%
D17*
%TO.C,D71*%
X-200630000Y305590000D03*
X-200630000Y308890000D03*
%TD*%
D14*
%TO.C,D187*%
X-219700000Y408400000D03*
X-219700000Y409900000D03*
D15*
X-214000000Y409900000D03*
D14*
X-214000000Y408400000D03*
%TD*%
%TO.C,D200*%
X-155550000Y432900788D03*
X-155550000Y434400788D03*
D15*
X-149850000Y434400788D03*
D14*
X-149850000Y432900788D03*
%TD*%
%TO.C,D190*%
X72800000Y427900000D03*
X72800000Y429400000D03*
D15*
X78500000Y429400000D03*
D14*
X78500000Y427900000D03*
%TD*%
D21*
%TO.C,C117*%
X-114600000Y440300000D03*
X-117725000Y440300000D03*
%TD*%
D22*
%TO.C,C112*%
X128600000Y364400000D03*
X128600000Y367525000D03*
%TD*%
D21*
%TO.C,C118*%
X-142200000Y440400000D03*
X-145325000Y440400000D03*
%TD*%
D20*
%TO.C,C108*%
X-212600000Y293900000D03*
X-209475000Y293900000D03*
%TD*%
D14*
%TO.C,D182*%
X-96200000Y408400000D03*
X-96200000Y409900000D03*
D15*
X-90500000Y409900000D03*
D14*
X-90500000Y408400000D03*
%TD*%
D17*
%TO.C,D45*%
X-59910000Y343910000D03*
X-59910000Y347210000D03*
%TD*%
D14*
%TO.C,D159*%
X9500000Y386300000D03*
X9500000Y387800000D03*
D15*
X15200000Y387800000D03*
D14*
X15200000Y386300000D03*
%TD*%
%TO.C,D166*%
X-124200000Y386300000D03*
X-124200000Y387800000D03*
D15*
X-118500000Y387800000D03*
D14*
X-118500000Y386300000D03*
%TD*%
D16*
%TO.C,C77*%
X108000000Y407250000D03*
X108000000Y404125000D03*
%TD*%
D20*
%TO.C,C100*%
X32175000Y293400000D03*
X35300000Y293400000D03*
%TD*%
D10*
%TO.C,SW2*%
X-103195000Y300800000D03*
X-103195000Y300800000D03*
X-103195000Y300800000D03*
X-88845000Y299750000D03*
X-88845000Y299750000D03*
X-88845000Y299750000D03*
%TD*%
M02*
