%TF.GenerationSoftware,KiCad,Pcbnew,8.0.2-8.0.2-0~ubuntu22.04.1*%
%TF.CreationDate,2024-05-19T18:59:24-07:00*%
%TF.ProjectId,100kbd,3130306b-6264-42e6-9b69-6361645f7063,rev?*%
%TF.SameCoordinates,Original*%
%TF.FileFunction,Profile,NP*%
%FSLAX46Y46*%
G04 Gerber Fmt 4.6, Leading zero omitted, Abs format (unit mm)*
G04 Created by KiCad (PCBNEW 8.0.2-8.0.2-0~ubuntu22.04.1) date 2024-05-19 18:59:24*
%MOMM*%
%LPD*%
G01*
G04 APERTURE LIST*
%TA.AperFunction,Profile*%
%ADD10C,0.050000*%
%TD*%
%TA.AperFunction,Profile*%
%ADD11C,0.120000*%
%TD*%
G04 APERTURE END LIST*
D10*
X-229800000Y451100000D02*
X130110000Y451100000D01*
X130110000Y291700000D01*
X-229800000Y291700000D01*
X-229800000Y451100000D01*
X130000000Y291700000D02*
X-229800000Y291700000D01*
%TO.C,SW36*%
X18738878Y330194517D02*
X18738878Y317794517D01*
X18738878Y317794517D02*
X25538878Y317794517D01*
X25538878Y330194517D02*
X18738878Y330194517D01*
X25538878Y317794517D02*
X25538878Y330194517D01*
X42620000Y330205708D02*
X42620000Y317805708D01*
X42620000Y317805708D02*
X49420000Y317805708D01*
X49420000Y330205708D02*
X42620000Y330205708D01*
X49420000Y317805708D02*
X49420000Y330205708D01*
%TO.C,SW31*%
X-219590000Y331445663D02*
X-219590000Y319045663D01*
X-219590000Y319045663D02*
X-212790000Y319045663D01*
X-212790000Y331445663D02*
X-219590000Y331445663D01*
X-212790000Y319045663D02*
X-212790000Y331445663D01*
X-195712012Y331444969D02*
X-195712012Y319044969D01*
X-195712012Y319044969D02*
X-188912012Y319044969D01*
X-188912012Y331444969D02*
X-195712012Y331444969D01*
X-188912012Y319044969D02*
X-188912012Y331444969D01*
%TO.C,SW47*%
X23570000Y350545663D02*
X23570000Y338145663D01*
X23570000Y338145663D02*
X30370000Y338145663D01*
X30370000Y350545663D02*
X23570000Y350545663D01*
X30370000Y338145663D02*
X30370000Y350545663D01*
X47447988Y350544969D02*
X47447988Y338144969D01*
X47447988Y338144969D02*
X54247988Y338144969D01*
X54247988Y350544969D02*
X47447988Y350544969D01*
X54247988Y338144969D02*
X54247988Y350544969D01*
%TO.C,SW97*%
X26332183Y388745367D02*
X26332183Y376345367D01*
X26332183Y376345367D02*
X33132183Y376345367D01*
X33132183Y388745367D02*
X26332183Y388745367D01*
X33132183Y376345367D02*
X33132183Y388745367D01*
X50210000Y388740000D02*
X50210000Y376340000D01*
X50210000Y376340000D02*
X57010000Y376340000D01*
X57010000Y388740000D02*
X50210000Y388740000D01*
X57010000Y376340000D02*
X57010000Y388740000D01*
D11*
%TO.C,D143*%
X-110450000Y366450000D02*
X-113850000Y366450000D01*
X-113850000Y366450000D02*
X-113850000Y369450000D01*
X-110450000Y369450000D02*
X-110450000Y366450000D01*
X-113850000Y369450000D02*
X-110450000Y369450000D01*
%TO.C,D104*%
X47950000Y309250000D02*
X44550000Y309250000D01*
X44550000Y309250000D02*
X44550000Y312250000D01*
X47950000Y312250000D02*
X47950000Y309250000D01*
X44550000Y312250000D02*
X47950000Y312250000D01*
%TO.C,D183*%
X-120650000Y407650000D02*
X-124050000Y407650000D01*
X-124050000Y407650000D02*
X-124050000Y410650000D01*
X-120650000Y410650000D02*
X-120650000Y407650000D01*
X-124050000Y410650000D02*
X-120650000Y410650000D01*
%TO.C,D147*%
X-34150000Y366450000D02*
X-37550000Y366450000D01*
X-37550000Y366450000D02*
X-37550000Y369450000D01*
X-34150000Y369450000D02*
X-34150000Y366450000D01*
X-37550000Y369450000D02*
X-34150000Y369450000D01*
%TO.C,D161*%
X-24150000Y385550000D02*
X-27550000Y385550000D01*
X-27550000Y385550000D02*
X-27550000Y388550000D01*
X-24150000Y388550000D02*
X-24150000Y385550000D01*
X-27550000Y388550000D02*
X-24150000Y388550000D01*
%TO.C,D135*%
X-162950000Y347350000D02*
X-166350000Y347350000D01*
X-166350000Y347350000D02*
X-166350000Y350350000D01*
X-162950000Y350350000D02*
X-162950000Y347350000D01*
X-166350000Y350350000D02*
X-162950000Y350350000D01*
%TO.C,D171*%
X-215150000Y385550000D02*
X-218550000Y385550000D01*
X-218550000Y385550000D02*
X-218550000Y388550000D01*
X-215150000Y388550000D02*
X-215150000Y385550000D01*
X-218550000Y388550000D02*
X-215150000Y388550000D01*
%TO.C,D103*%
X77200000Y309250000D02*
X73800000Y309250000D01*
X73800000Y309250000D02*
X73800000Y312250000D01*
X77200000Y312250000D02*
X77200000Y309250000D01*
X73800000Y312250000D02*
X77200000Y312250000D01*
%TO.C,D118*%
X-77050000Y328250000D02*
X-80450000Y328250000D01*
X-80450000Y328250000D02*
X-80450000Y331250000D01*
X-77050000Y331250000D02*
X-77050000Y328250000D01*
X-80450000Y331250000D02*
X-77050000Y331250000D01*
%TO.C,D127*%
X-10150000Y347350000D02*
X-13550000Y347350000D01*
X-13550000Y347350000D02*
X-13550000Y350350000D01*
X-10150000Y350350000D02*
X-10150000Y347350000D01*
X-13550000Y350350000D02*
X-10150000Y350350000D01*
%TO.C,D121*%
X-19750000Y328250000D02*
X-23150000Y328250000D01*
X-23150000Y328250000D02*
X-23150000Y331250000D01*
X-19750000Y331250000D02*
X-19750000Y328250000D01*
X-23150000Y331250000D02*
X-19750000Y331250000D01*
%TO.C,D156*%
X96350000Y385550000D02*
X92950000Y385550000D01*
X92950000Y385550000D02*
X92950000Y388550000D01*
X96350000Y388550000D02*
X96350000Y385550000D01*
X92950000Y388550000D02*
X96350000Y388550000D01*
%TO.C,D117*%
X-96150000Y328250000D02*
X-99550000Y328250000D01*
X-99550000Y328250000D02*
X-99550000Y331250000D01*
X-96150000Y331250000D02*
X-96150000Y328250000D01*
X-99550000Y331250000D02*
X-96150000Y331250000D01*
%TO.C,D150*%
X23250000Y366450000D02*
X19850000Y366450000D01*
X19850000Y366450000D02*
X19850000Y369450000D01*
X23250000Y369450000D02*
X23250000Y366450000D01*
X19850000Y369450000D02*
X23250000Y369450000D01*
%TO.C,D158*%
X42550000Y385550000D02*
X39150000Y385550000D01*
X39150000Y385550000D02*
X39150000Y388550000D01*
X42550000Y388550000D02*
X42550000Y385550000D01*
X39150000Y388550000D02*
X42550000Y388550000D01*
%TO.C,D125*%
X39750000Y347350000D02*
X36350000Y347350000D01*
X36350000Y347350000D02*
X36350000Y350350000D01*
X39750000Y350350000D02*
X39750000Y347350000D01*
X36350000Y350350000D02*
X39750000Y350350000D01*
%TO.C,D184*%
X-139750000Y407650000D02*
X-143150000Y407650000D01*
X-143150000Y407650000D02*
X-143150000Y410650000D01*
X-139750000Y410650000D02*
X-139750000Y407650000D01*
X-143150000Y410650000D02*
X-139750000Y410650000D01*
%TO.C,D149*%
X4150000Y366450000D02*
X750000Y366450000D01*
X750000Y366450000D02*
X750000Y369450000D01*
X4150000Y369450000D02*
X4150000Y366450000D01*
X750000Y369450000D02*
X4150000Y369450000D01*
%TO.C,D113*%
X-172650000Y328350000D02*
X-176050000Y328350000D01*
X-176050000Y328350000D02*
X-176050000Y331350000D01*
X-172650000Y331350000D02*
X-172650000Y328350000D01*
X-176050000Y331350000D02*
X-172650000Y331350000D01*
%TO.C,D163*%
X-62350000Y385550000D02*
X-65750000Y385550000D01*
X-65750000Y385550000D02*
X-65750000Y388550000D01*
X-62350000Y388550000D02*
X-62350000Y385550000D01*
X-65750000Y388550000D02*
X-62350000Y388550000D01*
%TO.C,D170*%
X-196050000Y385550000D02*
X-199450000Y385550000D01*
X-199450000Y385550000D02*
X-199450000Y388550000D01*
X-196050000Y388550000D02*
X-196050000Y385550000D01*
X-199450000Y388550000D02*
X-196050000Y388550000D01*
%TO.C,D192*%
X17870000Y432150000D02*
X14470000Y432150000D01*
X14470000Y432150000D02*
X14470000Y435150000D01*
X17870000Y435150000D02*
X17870000Y432150000D01*
X14470000Y435150000D02*
X17870000Y435150000D01*
%TO.C,D136*%
X-182050000Y347350000D02*
X-185450000Y347350000D01*
X-185450000Y347350000D02*
X-185450000Y350350000D01*
X-182050000Y350350000D02*
X-182050000Y347350000D01*
X-185450000Y350350000D02*
X-182050000Y350350000D01*
%TO.C,D132*%
X-105650000Y347350000D02*
X-109050000Y347350000D01*
X-109050000Y347350000D02*
X-109050000Y350350000D01*
X-105650000Y350350000D02*
X-105650000Y347350000D01*
X-109050000Y350350000D02*
X-105650000Y350350000D01*
%TO.C,D177*%
X13750000Y407650000D02*
X10350000Y407650000D01*
X10350000Y407650000D02*
X10350000Y410650000D01*
X13750000Y410650000D02*
X13750000Y407650000D01*
X10350000Y410650000D02*
X13750000Y410650000D01*
%TO.C,D126*%
X8950000Y347350000D02*
X5550000Y347350000D01*
X5550000Y347350000D02*
X5550000Y350350000D01*
X8950000Y350350000D02*
X8950000Y347350000D01*
X5550000Y350350000D02*
X8950000Y350350000D01*
%TO.C,D144*%
X-91450000Y366450000D02*
X-94850000Y366450000D01*
X-94850000Y366450000D02*
X-94850000Y369450000D01*
X-91450000Y369450000D02*
X-91450000Y366450000D01*
X-94850000Y369450000D02*
X-91450000Y369450000D01*
%TO.C,D129*%
X-48350000Y347350000D02*
X-51750000Y347350000D01*
X-51750000Y347350000D02*
X-51750000Y350350000D01*
X-48350000Y350350000D02*
X-48350000Y347350000D01*
X-51750000Y350350000D02*
X-48350000Y350350000D01*
%TO.C,D131*%
X-86550000Y347350000D02*
X-89950000Y347350000D01*
X-89950000Y347350000D02*
X-89950000Y350350000D01*
X-86550000Y350350000D02*
X-86550000Y347350000D01*
X-89950000Y350350000D02*
X-86550000Y350350000D01*
%TO.C,D174*%
X76800000Y408050000D02*
X73400000Y408050000D01*
X73400000Y408050000D02*
X73400000Y411050000D01*
X76800000Y411050000D02*
X76800000Y408050000D01*
X73400000Y411050000D02*
X76800000Y411050000D01*
%TO.C,D106*%
X600000Y309250000D02*
X-2800000Y309250000D01*
X-2800000Y309250000D02*
X-2800000Y312250000D01*
X600000Y312250000D02*
X600000Y309250000D01*
X-2800000Y312250000D02*
X600000Y312250000D01*
%TO.C,D176*%
X32850000Y407650000D02*
X29450000Y407650000D01*
X29450000Y407650000D02*
X29450000Y410650000D01*
X32850000Y410650000D02*
X32850000Y407650000D01*
X29450000Y410650000D02*
X32850000Y410650000D01*
%TO.C,D119*%
X-57950000Y328250000D02*
X-61350000Y328250000D01*
X-61350000Y328250000D02*
X-61350000Y331250000D01*
X-57950000Y331250000D02*
X-57950000Y328250000D01*
X-61350000Y331250000D02*
X-57950000Y331250000D01*
%TO.C,D199*%
X-131850000Y432150000D02*
X-135250000Y432150000D01*
X-135250000Y432150000D02*
X-135250000Y435150000D01*
X-131850000Y435150000D02*
X-131850000Y432150000D01*
X-135250000Y435150000D02*
X-131850000Y435150000D01*
%TO.C,D197*%
X-89640000Y432150000D02*
X-93040000Y432150000D01*
X-93040000Y432150000D02*
X-93040000Y435150000D01*
X-89640000Y435150000D02*
X-89640000Y432150000D01*
X-93040000Y435150000D02*
X-89640000Y435150000D01*
%TO.C,D145*%
X-72250000Y366500000D02*
X-75650000Y366500000D01*
X-75650000Y366500000D02*
X-75650000Y369500000D01*
X-72250000Y369500000D02*
X-72250000Y366500000D01*
X-75650000Y369500000D02*
X-72250000Y369500000D01*
%TO.C,D114*%
X-153450000Y328250000D02*
X-156850000Y328250000D01*
X-156850000Y328250000D02*
X-156850000Y331250000D01*
X-153450000Y331250000D02*
X-153450000Y328250000D01*
X-156850000Y331250000D02*
X-153450000Y331250000D01*
%TO.C,D193*%
X-5235518Y432150000D02*
X-8635518Y432150000D01*
X-8635518Y432150000D02*
X-8635518Y435150000D01*
X-5235518Y435150000D02*
X-5235518Y432150000D01*
X-8635518Y435150000D02*
X-5235518Y435150000D01*
%TO.C,D151*%
X46850000Y366450000D02*
X43450000Y366450000D01*
X43450000Y366450000D02*
X43450000Y369450000D01*
X46850000Y369450000D02*
X46850000Y366450000D01*
X43450000Y369450000D02*
X46850000Y369450000D01*
%TO.C,D120*%
X-38850000Y328250000D02*
X-42250000Y328250000D01*
X-42250000Y328250000D02*
X-42250000Y331250000D01*
X-38850000Y331250000D02*
X-38850000Y328250000D01*
X-42250000Y331250000D02*
X-38850000Y331250000D01*
%TO.C,D185*%
X-158850000Y407650000D02*
X-162250000Y407650000D01*
X-162250000Y407650000D02*
X-162250000Y410650000D01*
X-158850000Y410650000D02*
X-158850000Y407650000D01*
X-162250000Y410650000D02*
X-158850000Y410650000D01*
%TO.C,D108*%
X-94159764Y309223913D02*
X-97559764Y309223913D01*
X-97559764Y309223913D02*
X-97559764Y312223913D01*
X-94159764Y312223913D02*
X-94159764Y309223913D01*
X-97559764Y312223913D02*
X-94159764Y312223913D01*
%TO.C,D164*%
X-81450000Y385550000D02*
X-84850000Y385550000D01*
X-84850000Y385550000D02*
X-84850000Y388550000D01*
X-81450000Y388550000D02*
X-81450000Y385550000D01*
X-84850000Y388550000D02*
X-81450000Y388550000D01*
%TO.C,D155*%
X115450000Y385550000D02*
X112050000Y385550000D01*
X112050000Y385550000D02*
X112050000Y388550000D01*
X115450000Y388550000D02*
X115450000Y385550000D01*
X112050000Y388550000D02*
X115450000Y388550000D01*
%TO.C,D146*%
X-53150000Y366450000D02*
X-56550000Y366450000D01*
X-56550000Y366450000D02*
X-56550000Y369450000D01*
X-53150000Y369450000D02*
X-53150000Y366450000D01*
X-56550000Y369450000D02*
X-53150000Y369450000D01*
%TO.C,D141*%
X-148650000Y366450000D02*
X-152050000Y366450000D01*
X-152050000Y366450000D02*
X-152050000Y369450000D01*
X-148650000Y369450000D02*
X-148650000Y366450000D01*
X-152050000Y369450000D02*
X-148650000Y369450000D01*
%TO.C,D173*%
X97050000Y408050000D02*
X93650000Y408050000D01*
X93650000Y408050000D02*
X93650000Y411050000D01*
X97050000Y411050000D02*
X97050000Y408050000D01*
X93650000Y411050000D02*
X97050000Y411050000D01*
%TO.C,D189*%
X96450000Y427150000D02*
X93050000Y427150000D01*
X93050000Y427150000D02*
X93050000Y430150000D01*
X96450000Y430150000D02*
X96450000Y427150000D01*
X93050000Y430150000D02*
X96450000Y430150000D01*
%TO.C,D188*%
X115450000Y427151692D02*
X112050000Y427151692D01*
X112050000Y427151692D02*
X112050000Y430151692D01*
X115450000Y430151692D02*
X115450000Y427151692D01*
X112050000Y430151692D02*
X115450000Y430151692D01*
%TO.C,D130*%
X-67450000Y347350000D02*
X-70850000Y347350000D01*
X-70850000Y347350000D02*
X-70850000Y350350000D01*
X-67450000Y350350000D02*
X-67450000Y347350000D01*
X-70850000Y350350000D02*
X-67450000Y350350000D01*
%TO.C,D138*%
X-210550000Y366450000D02*
X-213950000Y366450000D01*
X-213950000Y366450000D02*
X-213950000Y369450000D01*
X-210550000Y369450000D02*
X-210550000Y366450000D01*
X-213950000Y369450000D02*
X-210550000Y369450000D01*
%TO.C,D110*%
X-189200000Y309250000D02*
X-192600000Y309250000D01*
X-192600000Y309250000D02*
X-192600000Y312250000D01*
X-189200000Y312250000D02*
X-189200000Y309250000D01*
X-192600000Y312250000D02*
X-189200000Y312250000D01*
%TO.C,D112*%
X-203377270Y328316162D02*
X-206777270Y328316162D01*
X-206777270Y328316162D02*
X-206777270Y331316162D01*
X-203377270Y331316162D02*
X-203377270Y328316162D01*
X-206777270Y331316162D02*
X-203377270Y331316162D01*
%TO.C,D148*%
X-14950000Y366450000D02*
X-18350000Y366450000D01*
X-18350000Y366450000D02*
X-18350000Y369450000D01*
X-14950000Y369450000D02*
X-14950000Y366450000D01*
X-18350000Y369450000D02*
X-14950000Y369450000D01*
%TO.C,D124*%
X96350000Y328250000D02*
X92950000Y328250000D01*
X92950000Y328250000D02*
X92950000Y331250000D01*
X96350000Y331250000D02*
X96350000Y328250000D01*
X92950000Y331250000D02*
X96350000Y331250000D01*
%TO.C,D168*%
X-157850000Y385550000D02*
X-161250000Y385550000D01*
X-161250000Y385550000D02*
X-161250000Y388550000D01*
X-157850000Y388550000D02*
X-157850000Y385550000D01*
X-161250000Y388550000D02*
X-157850000Y388550000D01*
%TO.C,D133*%
X-124750000Y347350000D02*
X-128150000Y347350000D01*
X-128150000Y347350000D02*
X-128150000Y350350000D01*
X-124750000Y350350000D02*
X-124750000Y347350000D01*
X-128150000Y350350000D02*
X-124750000Y350350000D01*
%TO.C,D116*%
X-115250000Y328250000D02*
X-118650000Y328250000D01*
X-118650000Y328250000D02*
X-118650000Y331250000D01*
X-115250000Y331250000D02*
X-115250000Y328250000D01*
X-118650000Y331250000D02*
X-115250000Y331250000D01*
%TO.C,D123*%
X34850000Y328250000D02*
X31450000Y328250000D01*
X31450000Y328250000D02*
X31450000Y331250000D01*
X34850000Y331250000D02*
X34850000Y328250000D01*
X31450000Y331250000D02*
X34850000Y331250000D01*
%TO.C,D142*%
X-129650000Y366450000D02*
X-133050000Y366450000D01*
X-133050000Y366450000D02*
X-133050000Y369450000D01*
X-129650000Y369450000D02*
X-129650000Y366450000D01*
X-133050000Y369450000D02*
X-129650000Y369450000D01*
%TO.C,D169*%
X-176950000Y385550000D02*
X-180350000Y385550000D01*
X-180350000Y385550000D02*
X-180350000Y388550000D01*
X-176950000Y388550000D02*
X-176950000Y385550000D01*
X-180350000Y388550000D02*
X-176950000Y388550000D01*
%TO.C,D194*%
X-24335518Y432150000D02*
X-27735518Y432150000D01*
X-27735518Y432150000D02*
X-27735518Y435150000D01*
X-24335518Y435150000D02*
X-24335518Y432150000D01*
X-27735518Y435150000D02*
X-24335518Y435150000D01*
%TO.C,D186*%
X-177950000Y407650000D02*
X-181350000Y407650000D01*
X-181350000Y407650000D02*
X-181350000Y410650000D01*
X-177950000Y410650000D02*
X-177950000Y407650000D01*
X-181350000Y410650000D02*
X-177950000Y410650000D01*
%TO.C,D101*%
X115700000Y309250000D02*
X112300000Y309250000D01*
X112300000Y309250000D02*
X112300000Y312250000D01*
X115700000Y312250000D02*
X115700000Y309250000D01*
X112300000Y312250000D02*
X115700000Y312250000D01*
%TO.C,D139*%
X-186850000Y366450000D02*
X-190250000Y366450000D01*
X-190250000Y366450000D02*
X-190250000Y369450000D01*
X-186850000Y369450000D02*
X-186850000Y366450000D01*
X-190250000Y369450000D02*
X-186850000Y369450000D01*
%TO.C,D109*%
X-165387302Y309223913D02*
X-168787302Y309223913D01*
X-168787302Y309223913D02*
X-168787302Y312223913D01*
X-165387302Y312223913D02*
X-165387302Y309223913D01*
X-168787302Y312223913D02*
X-165387302Y312223913D01*
%TO.C,D160*%
X-5050000Y385550000D02*
X-8450000Y385550000D01*
X-8450000Y385550000D02*
X-8450000Y388550000D01*
X-5050000Y388550000D02*
X-5050000Y385550000D01*
X-8450000Y388550000D02*
X-5050000Y388550000D01*
%TO.C,D178*%
X-5350000Y407650000D02*
X-8750000Y407650000D01*
X-8750000Y407650000D02*
X-8750000Y410650000D01*
X-5350000Y410650000D02*
X-5350000Y407650000D01*
X-8750000Y410650000D02*
X-5350000Y410650000D01*
%TO.C,D102*%
X96450000Y309250000D02*
X93050000Y309250000D01*
X93050000Y309250000D02*
X93050000Y312250000D01*
X96450000Y312250000D02*
X96450000Y309250000D01*
X93050000Y312250000D02*
X96450000Y312250000D01*
%TO.C,D137*%
X-208150000Y347350000D02*
X-211550000Y347350000D01*
X-211550000Y347350000D02*
X-211550000Y350350000D01*
X-208150000Y350350000D02*
X-208150000Y347350000D01*
X-211550000Y350350000D02*
X-208150000Y350350000D01*
%TO.C,D162*%
X-43250000Y385550000D02*
X-46650000Y385550000D01*
X-46650000Y385550000D02*
X-46650000Y388550000D01*
X-43250000Y388550000D02*
X-43250000Y385550000D01*
X-46650000Y388550000D02*
X-43250000Y388550000D01*
%TO.C,D179*%
X-34350000Y407650000D02*
X-37750000Y407650000D01*
X-37750000Y407650000D02*
X-37750000Y410650000D01*
X-34350000Y410650000D02*
X-34350000Y407650000D01*
X-37750000Y410650000D02*
X-34350000Y410650000D01*
%TO.C,D128*%
X-29350000Y347350000D02*
X-32750000Y347350000D01*
X-32750000Y347350000D02*
X-32750000Y350350000D01*
X-29350000Y350350000D02*
X-29350000Y347350000D01*
X-32750000Y350350000D02*
X-29350000Y350350000D01*
%TO.C,D122*%
X-650000Y328250000D02*
X-4050000Y328250000D01*
X-4050000Y328250000D02*
X-4050000Y331250000D01*
X-650000Y331250000D02*
X-650000Y328250000D01*
X-4050000Y331250000D02*
X-650000Y331250000D01*
%TO.C,D180*%
X-53450000Y407650000D02*
X-56850000Y407650000D01*
X-56850000Y407650000D02*
X-56850000Y410650000D01*
X-53450000Y410650000D02*
X-53450000Y407650000D01*
X-56850000Y410650000D02*
X-53450000Y410650000D01*
%TO.C,D191*%
X36970000Y432150000D02*
X33570000Y432150000D01*
X33570000Y432150000D02*
X33570000Y435150000D01*
X36970000Y435150000D02*
X36970000Y432150000D01*
X33570000Y435150000D02*
X36970000Y435150000D01*
%TO.C,D181*%
X-72550000Y407650000D02*
X-75950000Y407650000D01*
X-75950000Y407650000D02*
X-75950000Y410650000D01*
X-72550000Y410650000D02*
X-72550000Y407650000D01*
X-75950000Y410650000D02*
X-72550000Y410650000D01*
%TO.C,D196*%
X-66535518Y432150000D02*
X-69935518Y432150000D01*
X-69935518Y432150000D02*
X-69935518Y435150000D01*
X-66535518Y435150000D02*
X-66535518Y432150000D01*
X-69935518Y435150000D02*
X-66535518Y435150000D01*
%TO.C,D154*%
X115450000Y366450000D02*
X112050000Y366450000D01*
X112050000Y366450000D02*
X112050000Y369450000D01*
X115450000Y369450000D02*
X115450000Y366450000D01*
X112050000Y369450000D02*
X115450000Y369450000D01*
%TO.C,D167*%
X-138750000Y385550000D02*
X-142150000Y385550000D01*
X-142150000Y385550000D02*
X-142150000Y388550000D01*
X-138750000Y388550000D02*
X-138750000Y385550000D01*
X-142150000Y388550000D02*
X-138750000Y388550000D01*
%TO.C,D157*%
X77250000Y385550000D02*
X73850000Y385550000D01*
X73850000Y385550000D02*
X73850000Y388550000D01*
X77250000Y388550000D02*
X77250000Y385550000D01*
X73850000Y388550000D02*
X77250000Y388550000D01*
%TO.C,D198*%
X-108740000Y432150000D02*
X-112140000Y432150000D01*
X-112140000Y432150000D02*
X-112140000Y435150000D01*
X-108740000Y435150000D02*
X-108740000Y432150000D01*
X-112140000Y435150000D02*
X-108740000Y435150000D01*
%TO.C,D153*%
X96350000Y366450000D02*
X92950000Y366450000D01*
X92950000Y366450000D02*
X92950000Y369450000D01*
X96350000Y369450000D02*
X96350000Y366450000D01*
X92950000Y369450000D02*
X96350000Y369450000D01*
%TO.C,D134*%
X-143850000Y347350000D02*
X-147250000Y347350000D01*
X-147250000Y347350000D02*
X-147250000Y350350000D01*
X-143850000Y350350000D02*
X-143850000Y347350000D01*
X-147250000Y350350000D02*
X-143850000Y350350000D01*
%TO.C,D105*%
X24350000Y309250000D02*
X20950000Y309250000D01*
X20950000Y309250000D02*
X20950000Y312250000D01*
X24350000Y312250000D02*
X24350000Y309250000D01*
X20950000Y312250000D02*
X24350000Y312250000D01*
%TO.C,D111*%
X-212851971Y309202052D02*
X-216251971Y309202052D01*
X-216251971Y309202052D02*
X-216251971Y312202052D01*
X-212851971Y312202052D02*
X-212851971Y309202052D01*
X-216251971Y312202052D02*
X-212851971Y312202052D01*
%TO.C,D115*%
X-134450000Y328250000D02*
X-137850000Y328250000D01*
X-137850000Y328250000D02*
X-137850000Y331250000D01*
X-134450000Y331250000D02*
X-134450000Y328250000D01*
X-137850000Y331250000D02*
X-134450000Y331250000D01*
%TO.C,D195*%
X-47440000Y432150000D02*
X-50840000Y432150000D01*
X-50840000Y432150000D02*
X-50840000Y435150000D01*
X-47440000Y435150000D02*
X-47440000Y432150000D01*
X-50840000Y435150000D02*
X-47440000Y435150000D01*
%TO.C,D107*%
X-23150000Y309223913D02*
X-26550000Y309223913D01*
X-26550000Y309223913D02*
X-26550000Y312223913D01*
X-23150000Y312223913D02*
X-23150000Y309223913D01*
X-26550000Y312223913D02*
X-23150000Y312223913D01*
%TO.C,D172*%
X115550000Y408050000D02*
X112150000Y408050000D01*
X112150000Y408050000D02*
X112150000Y411050000D01*
X115550000Y411050000D02*
X115550000Y408050000D01*
X112150000Y411050000D02*
X115550000Y411050000D01*
%TO.C,D152*%
X77250000Y366450000D02*
X73850000Y366450000D01*
X73850000Y366450000D02*
X73850000Y369450000D01*
X77250000Y369450000D02*
X77250000Y366450000D01*
X73850000Y369450000D02*
X77250000Y369450000D01*
%TO.C,D175*%
X51950000Y407650000D02*
X48550000Y407650000D01*
X48550000Y407650000D02*
X48550000Y410650000D01*
X51950000Y410650000D02*
X51950000Y407650000D01*
X48550000Y410650000D02*
X51950000Y410650000D01*
%TO.C,D140*%
X-167750000Y366450000D02*
X-171150000Y366450000D01*
X-171150000Y366450000D02*
X-171150000Y369450000D01*
X-167750000Y369450000D02*
X-167750000Y366450000D01*
X-171150000Y369450000D02*
X-167750000Y369450000D01*
%TO.C,D165*%
X-100550000Y385550000D02*
X-103950000Y385550000D01*
X-103950000Y385550000D02*
X-103950000Y388550000D01*
X-100550000Y388550000D02*
X-100550000Y385550000D01*
X-103950000Y388550000D02*
X-100550000Y388550000D01*
%TO.C,D187*%
X-215150000Y407650000D02*
X-218550000Y407650000D01*
X-218550000Y407650000D02*
X-218550000Y410650000D01*
X-215150000Y410650000D02*
X-215150000Y407650000D01*
X-218550000Y410650000D02*
X-215150000Y410650000D01*
%TO.C,D200*%
X-151000000Y432150788D02*
X-154400000Y432150788D01*
X-154400000Y432150788D02*
X-154400000Y435150788D01*
X-151000000Y435150788D02*
X-151000000Y432150788D01*
X-154400000Y435150788D02*
X-151000000Y435150788D01*
%TO.C,D190*%
X77350000Y427150000D02*
X73950000Y427150000D01*
X73950000Y427150000D02*
X73950000Y430150000D01*
X77350000Y430150000D02*
X77350000Y427150000D01*
X73950000Y430150000D02*
X77350000Y430150000D01*
%TO.C,D182*%
X-91650000Y407650000D02*
X-95050000Y407650000D01*
X-95050000Y407650000D02*
X-95050000Y410650000D01*
X-91650000Y410650000D02*
X-91650000Y407650000D01*
X-95050000Y410650000D02*
X-91650000Y410650000D01*
%TO.C,D159*%
X14050000Y385550000D02*
X10650000Y385550000D01*
X10650000Y385550000D02*
X10650000Y388550000D01*
X14050000Y388550000D02*
X14050000Y385550000D01*
X10650000Y388550000D02*
X14050000Y388550000D01*
%TO.C,D166*%
X-119650000Y385550000D02*
X-123050000Y385550000D01*
X-123050000Y385550000D02*
X-123050000Y388550000D01*
X-119650000Y388550000D02*
X-119650000Y385550000D01*
X-123050000Y388550000D02*
X-119650000Y388550000D01*
D10*
%TO.C,SW2*%
X-148520000Y312300000D02*
X-148520000Y299900000D01*
X-148520000Y299900000D02*
X-141720000Y299900000D01*
X-141720000Y312300000D02*
X-148520000Y312300000D01*
X-141720000Y299900000D02*
X-141720000Y312300000D01*
X-48520000Y312300000D02*
X-48520000Y299900000D01*
X-48520000Y299900000D02*
X-41720000Y299900000D01*
X-41720000Y312300000D02*
X-48520000Y312300000D01*
X-41720000Y299900000D02*
X-41720000Y312300000D01*
%TD*%
M02*
