%TF.GenerationSoftware,KiCad,Pcbnew,8.0.2-8.0.2-0~ubuntu22.04.1*%
%TF.CreationDate,2024-05-19T18:59:24-07:00*%
%TF.ProjectId,100kbd,3130306b-6264-42e6-9b69-6361645f7063,rev?*%
%TF.SameCoordinates,Original*%
%TF.FileFunction,Soldermask,Top*%
%TF.FilePolarity,Negative*%
%FSLAX46Y46*%
G04 Gerber Fmt 4.6, Leading zero omitted, Abs format (unit mm)*
G04 Created by KiCad (PCBNEW 8.0.2-8.0.2-0~ubuntu22.04.1) date 2024-05-19 18:59:24*
%MOMM*%
%LPD*%
G01*
G04 APERTURE LIST*
%ADD10C,0.700000*%
%ADD11C,4.400000*%
%ADD12C,2.400000*%
%ADD13C,3.450000*%
%ADD14C,5.250000*%
%ADD15C,4.000000*%
%ADD16C,1.752600*%
G04 APERTURE END LIST*
D10*
%TO.C,H5*%
X-81250000Y423600000D03*
X-80766726Y424766726D03*
X-80766726Y422433274D03*
X-79600000Y425250000D03*
D11*
X-79600000Y423600000D03*
D10*
X-79600000Y421950000D03*
X-78433274Y424766726D03*
X-78433274Y422433274D03*
X-77950000Y423600000D03*
%TD*%
%TO.C,H5*%
X-172183274Y432166726D03*
X-171700000Y433333452D03*
X-171700000Y431000000D03*
X-170533274Y433816726D03*
D11*
X-170533274Y432166726D03*
D10*
X-170533274Y430516726D03*
X-169366548Y433333452D03*
X-169366548Y431000000D03*
X-168883274Y432166726D03*
%TD*%
%TO.C,H5*%
X3150000Y423500000D03*
X3633274Y424666726D03*
X3633274Y422333274D03*
X4800000Y425150000D03*
D11*
X4800000Y423500000D03*
D10*
X4800000Y421850000D03*
X5966726Y424666726D03*
X5966726Y422333274D03*
X6450000Y423500000D03*
%TD*%
%TO.C,H5*%
X33250000Y300200000D03*
X33733274Y301366726D03*
X33733274Y299033274D03*
X34900000Y301850000D03*
D11*
X34900000Y300200000D03*
D10*
X34900000Y298550000D03*
X36066726Y301366726D03*
X36066726Y299033274D03*
X36550000Y300200000D03*
%TD*%
D12*
%TO.C,*%
X-58800000Y341800000D03*
%TD*%
%TO.C,*%
X-116100000Y341700000D03*
%TD*%
%TO.C,*%
X-82700000Y361100000D03*
%TD*%
%TO.C,*%
X-25500000Y360900000D03*
%TD*%
%TO.C,*%
X173000000Y253700000D03*
%TD*%
D10*
%TO.C,H5*%
X-109850000Y401700000D03*
X-109366726Y402866726D03*
X-109366726Y400533274D03*
X-108200000Y403350000D03*
D11*
X-108200000Y401700000D03*
D10*
X-108200000Y400050000D03*
X-107033274Y402866726D03*
X-107033274Y400533274D03*
X-106550000Y401700000D03*
%TD*%
%TO.C,H5*%
X-22500000Y399700000D03*
X-22016726Y400866726D03*
X-22016726Y398533274D03*
X-20850000Y401350000D03*
D11*
X-20850000Y399700000D03*
D10*
X-20850000Y398050000D03*
X-19683274Y400866726D03*
X-19683274Y398533274D03*
X-19200000Y399700000D03*
%TD*%
%TO.C,H5*%
X-226783274Y431733274D03*
X-226300000Y432900000D03*
X-226300000Y430566548D03*
X-225133274Y433383274D03*
D11*
X-225133274Y431733274D03*
D10*
X-225133274Y430083274D03*
X-223966548Y432900000D03*
X-223966548Y430566548D03*
X-223483274Y431733274D03*
%TD*%
%TO.C,H5*%
X-60200000Y416800000D03*
X-59716726Y417966726D03*
X-59716726Y415633274D03*
X-58550000Y418450000D03*
D11*
X-58550000Y416800000D03*
D10*
X-58550000Y415150000D03*
X-57383274Y417966726D03*
X-57383274Y415633274D03*
X-56900000Y416800000D03*
%TD*%
%TO.C,H5*%
X114850000Y436350000D03*
X115333274Y437516726D03*
X115333274Y435183274D03*
X116500000Y438000000D03*
D11*
X116500000Y436350000D03*
D10*
X116500000Y434700000D03*
X117666726Y437516726D03*
X117666726Y435183274D03*
X118150000Y436350000D03*
%TD*%
%TO.C,H1*%
X116283274Y350233274D03*
X116766548Y351400000D03*
X116766548Y349066548D03*
X117933274Y351883274D03*
D11*
X117933274Y350233274D03*
D10*
X117933274Y348583274D03*
X119100000Y351400000D03*
X119100000Y349066548D03*
X119583274Y350233274D03*
%TD*%
%TO.C,H6*%
X-202083274Y357133274D03*
X-201600000Y358300000D03*
X-201600000Y355966548D03*
X-200433274Y358783274D03*
D11*
X-200433274Y357133274D03*
D10*
X-200433274Y355483274D03*
X-199266548Y358300000D03*
X-199266548Y355966548D03*
X-198783274Y357133274D03*
%TD*%
%TO.C,H3*%
X-205000000Y406500000D03*
X-204516726Y407666726D03*
X-204516726Y405333274D03*
X-203350000Y408150000D03*
D11*
X-203350000Y406500000D03*
D10*
X-203350000Y404850000D03*
X-202183274Y407666726D03*
X-202183274Y405333274D03*
X-201700000Y406500000D03*
%TD*%
%TO.C,H4*%
X-204200000Y300100000D03*
X-203716726Y301266726D03*
X-203716726Y298933274D03*
X-202550000Y301750000D03*
D11*
X-202550000Y300100000D03*
D10*
X-202550000Y298450000D03*
X-201383274Y301266726D03*
X-201383274Y298933274D03*
X-200900000Y300100000D03*
%TD*%
%TO.C,H5*%
X187650000Y255550000D03*
X188133274Y256716726D03*
X188133274Y254383274D03*
X189300000Y257200000D03*
D11*
X189300000Y255550000D03*
D10*
X189300000Y253900000D03*
X190466726Y256716726D03*
X190466726Y254383274D03*
X190950000Y255550000D03*
%TD*%
%TO.C,H2*%
X-197583274Y338233274D03*
X-197100000Y339400000D03*
X-197100000Y337066548D03*
X-195933274Y339883274D03*
D11*
X-195933274Y338233274D03*
D10*
X-195933274Y336583274D03*
X-194766548Y339400000D03*
X-194766548Y337066548D03*
X-194283274Y338233274D03*
%TD*%
%TO.C,H6*%
X61750000Y398750000D03*
X62233274Y399916726D03*
X62233274Y397583274D03*
X63400000Y400400000D03*
D11*
X63400000Y398750000D03*
D10*
X63400000Y397100000D03*
X64566726Y399916726D03*
X64566726Y397583274D03*
X65050000Y398750000D03*
%TD*%
%TO.C,H1*%
X-117800000Y304500000D03*
X-117316726Y305666726D03*
X-117316726Y303333274D03*
X-116150000Y306150000D03*
D11*
X-116150000Y304500000D03*
D10*
X-116150000Y302850000D03*
X-114983274Y305666726D03*
X-114983274Y303333274D03*
X-114500000Y304500000D03*
%TD*%
%TO.C,H3*%
X-64783274Y307233274D03*
X-64300000Y308400000D03*
X-64300000Y306066548D03*
X-63133274Y308883274D03*
D11*
X-63133274Y307233274D03*
D10*
X-63133274Y305583274D03*
X-61966548Y308400000D03*
X-61966548Y306066548D03*
X-61483274Y307233274D03*
%TD*%
%TO.C,H4*%
X116383274Y393133274D03*
X116866548Y394300000D03*
X116866548Y391966548D03*
X118033274Y394783274D03*
D11*
X118033274Y393133274D03*
D10*
X118033274Y391483274D03*
X119200000Y394300000D03*
X119200000Y391966548D03*
X119683274Y393133274D03*
%TD*%
%TO.C,H5*%
X105750000Y316800000D03*
X106233274Y317966726D03*
X106233274Y315633274D03*
X107400000Y318450000D03*
D11*
X107400000Y316800000D03*
D10*
X107400000Y315150000D03*
X108566726Y317966726D03*
X108566726Y315633274D03*
X109050000Y316800000D03*
%TD*%
%TO.C,H2*%
X57116726Y363733274D03*
X57600000Y364900000D03*
X57600000Y362566548D03*
X58766726Y365383274D03*
D11*
X58766726Y363733274D03*
D10*
X58766726Y362083274D03*
X59933452Y364900000D03*
X59933452Y362566548D03*
X60416726Y363733274D03*
%TD*%
D13*
%TO.C,SW53*%
X-270000Y305500000D03*
X-270000Y305500000D03*
X-270000Y305500000D03*
X-270000Y305500000D03*
X-270000Y305500000D03*
D14*
X-270000Y305500000D03*
X-270000Y305500000D03*
X-270000Y305500000D03*
D15*
X-4670000Y300800000D03*
X-4670000Y300800000D03*
X2330000Y299750000D03*
X2330000Y299750000D03*
%TD*%
D13*
%TO.C,SW38*%
X-73400000Y404000000D03*
X-73400000Y404000000D03*
X-73400000Y404000000D03*
D14*
X-73400000Y404000000D03*
X-73400000Y404000000D03*
D15*
X-77800000Y399300000D03*
X-70800000Y398250000D03*
%TD*%
D13*
%TO.C,SW17*%
X12900000Y404000000D03*
X12900000Y404000000D03*
X12900000Y404000000D03*
D14*
X12900000Y404000000D03*
X12900000Y404000000D03*
D15*
X8500000Y399300000D03*
X15500000Y398250000D03*
%TD*%
D13*
%TO.C,SW56*%
X8060000Y343700000D03*
X8060000Y343700000D03*
X8060000Y343700000D03*
D14*
X8060000Y343700000D03*
X8060000Y343700000D03*
D15*
X3660000Y339000000D03*
X10660000Y337950000D03*
%TD*%
D13*
%TO.C,SW22*%
X-144740000Y343700000D03*
X-144740000Y343700000D03*
X-144740000Y343700000D03*
D14*
X-144740000Y343700000D03*
X-144740000Y343700000D03*
D15*
X-149140000Y339000000D03*
X-142140000Y337950000D03*
%TD*%
D13*
%TO.C,SW74*%
X-73144000Y362800000D03*
X-73144000Y362800000D03*
X-73144000Y362800000D03*
D14*
X-73144000Y362800000D03*
X-73144000Y362800000D03*
D15*
X-77544000Y358100000D03*
X-70544000Y357050000D03*
%TD*%
D13*
%TO.C,SW10*%
X114630000Y381900000D03*
X114630000Y381900000D03*
X114630000Y381900000D03*
D14*
X114630000Y381900000D03*
X114630000Y381900000D03*
D15*
X110230000Y377200000D03*
X117230000Y376150000D03*
%TD*%
D13*
%TO.C,SW44*%
X-58800000Y324600000D03*
X-58800000Y324600000D03*
X-58800000Y324600000D03*
D14*
X-58800000Y324600000D03*
X-58800000Y324600000D03*
D15*
X-63200000Y319900000D03*
X-56200000Y318850000D03*
%TD*%
D13*
%TO.C,SW21*%
X-209020000Y343700000D03*
X-209020000Y343700000D03*
X-209020000Y343700000D03*
X-209020000Y343700000D03*
X-209020000Y343700000D03*
D14*
X-209020000Y343700000D03*
X-209020000Y343700000D03*
X-209020000Y343700000D03*
D15*
X-213420000Y339000000D03*
X-213420000Y339000000D03*
X-206420000Y337950000D03*
X-206420000Y337950000D03*
%TD*%
D13*
%TO.C,SW66*%
X-15844000Y362800000D03*
X-15844000Y362800000D03*
X-15844000Y362800000D03*
D14*
X-15844000Y362800000D03*
X-15844000Y362800000D03*
D15*
X-20244000Y358100000D03*
X-13244000Y357050000D03*
%TD*%
D13*
%TO.C,SW90*%
X114630000Y423500000D03*
X114630000Y423500000D03*
X114630000Y423500000D03*
D14*
X114630000Y423500000D03*
X114630000Y423500000D03*
D15*
X110230000Y418800000D03*
X117230000Y417750000D03*
%TD*%
D13*
%TO.C,SW76*%
X3256000Y362800000D03*
X3256000Y362800000D03*
X3256000Y362800000D03*
D14*
X3256000Y362800000D03*
X3256000Y362800000D03*
D15*
X-1144000Y358100000D03*
X5856000Y357050000D03*
%TD*%
D13*
%TO.C,SW28*%
X-92500000Y404000000D03*
X-92500000Y404000000D03*
X-92500000Y404000000D03*
D14*
X-92500000Y404000000D03*
X-92500000Y404000000D03*
D15*
X-96900000Y399300000D03*
X-89900000Y398250000D03*
%TD*%
D13*
%TO.C,SW41*%
X-213725000Y305500000D03*
X-213725000Y305500000D03*
X-213725000Y305500000D03*
X-213725000Y305500000D03*
X-213725000Y305500000D03*
D14*
X-213725000Y305500000D03*
X-213725000Y305500000D03*
X-213725000Y305500000D03*
D15*
X-218125000Y300800000D03*
X-218125000Y300800000D03*
X-211125000Y299750000D03*
X-211125000Y299750000D03*
%TD*%
D13*
%TO.C,SW27*%
X51100000Y404000000D03*
X51100000Y404000000D03*
X51100000Y404000000D03*
D14*
X51100000Y404000000D03*
X51100000Y404000000D03*
D15*
X46700000Y399300000D03*
X53700000Y398250000D03*
%TD*%
D13*
%TO.C,SW87*%
X13200000Y381900000D03*
X13200000Y381900000D03*
X13200000Y381900000D03*
D14*
X13200000Y381900000D03*
X13200000Y381900000D03*
D15*
X8800000Y377200000D03*
X15800000Y376150000D03*
%TD*%
D13*
%TO.C,SW94*%
X-82300000Y381900000D03*
X-82300000Y381900000D03*
X-82300000Y381900000D03*
D14*
X-82300000Y381900000D03*
X-82300000Y381900000D03*
D15*
X-86700000Y377200000D03*
X-79700000Y376150000D03*
%TD*%
D13*
%TO.C,SW6*%
X114615000Y305500000D03*
X114615000Y305500000D03*
X114615000Y305500000D03*
D14*
X114615000Y305500000D03*
X114615000Y305500000D03*
D15*
X110215000Y300800000D03*
X117215000Y299750000D03*
%TD*%
D13*
%TO.C,SW26*%
X-1500000Y324600000D03*
X-1500000Y324600000D03*
X-1500000Y324600000D03*
D14*
X-1500000Y324600000D03*
X-1500000Y324600000D03*
D15*
X-5900000Y319900000D03*
X1100000Y318850000D03*
%TD*%
D13*
%TO.C,SW15*%
X95520000Y305500000D03*
X95520000Y305500000D03*
X95520000Y305500000D03*
D14*
X95520000Y305500000D03*
X95520000Y305500000D03*
D15*
X91120000Y300800000D03*
X98120000Y299750000D03*
%TD*%
D13*
%TO.C,SW83*%
X-111344000Y362800000D03*
X-111344000Y362800000D03*
X-111344000Y362800000D03*
D14*
X-111344000Y362800000D03*
X-111344000Y362800000D03*
D15*
X-115744000Y358100000D03*
X-108744000Y357050000D03*
%TD*%
D13*
%TO.C,SW40*%
X95535000Y404400000D03*
X95535000Y404400000D03*
X95535000Y404400000D03*
D14*
X95535000Y404400000D03*
X95535000Y404400000D03*
D15*
X91135000Y399700000D03*
X98135000Y398650000D03*
%TD*%
D13*
%TO.C,SW52*%
X-177800000Y381900000D03*
X-177800000Y381900000D03*
X-177800000Y381900000D03*
D14*
X-177800000Y381900000D03*
X-177800000Y381900000D03*
D15*
X-182200000Y377200000D03*
X-175200000Y376150000D03*
%TD*%
D13*
%TO.C,SW85*%
X-63200000Y381900000D03*
X-63200000Y381900000D03*
X-63200000Y381900000D03*
D14*
X-63200000Y381900000D03*
X-63200000Y381900000D03*
D15*
X-67600000Y377200000D03*
X-60600000Y376150000D03*
%TD*%
D13*
%TO.C,SW36*%
X34080000Y324600000D03*
X34080000Y324600000D03*
X34080000Y324600000D03*
X34080000Y324600000D03*
X34080000Y324600000D03*
D14*
X34080000Y324600000D03*
X34080000Y324600000D03*
X34080000Y324600000D03*
D15*
X29680000Y319900000D03*
X29680000Y319900000D03*
X36680000Y318850000D03*
X36680000Y318850000D03*
%TD*%
D13*
%TO.C,SW12*%
X-135200000Y324600000D03*
X-135200000Y324600000D03*
X-135200000Y324600000D03*
D14*
X-135200000Y324600000D03*
X-135200000Y324600000D03*
D15*
X-139600000Y319900000D03*
X-132600000Y318850000D03*
%TD*%
D13*
%TO.C,SW100*%
X114640000Y404400000D03*
X114640000Y404400000D03*
X114640000Y404400000D03*
D14*
X114640000Y404400000D03*
X114640000Y404400000D03*
D15*
X110240000Y399700000D03*
X117240000Y398650000D03*
%TD*%
D13*
%TO.C,SW25*%
X-39700000Y324600000D03*
X-39700000Y324600000D03*
X-39700000Y324600000D03*
D14*
X-39700000Y324600000D03*
X-39700000Y324600000D03*
D15*
X-44100000Y319900000D03*
X-37100000Y318850000D03*
%TD*%
D13*
%TO.C,SW19*%
X-132750000Y428500000D03*
X-132750000Y428500000D03*
X-132750000Y428500000D03*
D14*
X-132750000Y428500000D03*
X-132750000Y428500000D03*
D15*
X-137150000Y423800000D03*
X-130150000Y422750000D03*
%TD*%
D13*
%TO.C,SW70*%
X76420000Y381900000D03*
X76420000Y381900000D03*
X76420000Y381900000D03*
D14*
X76420000Y381900000D03*
X76420000Y381900000D03*
D15*
X72020000Y377200000D03*
X79020000Y376150000D03*
%TD*%
D13*
%TO.C,SW63*%
X-97000000Y324600000D03*
X-97000000Y324600000D03*
X-97000000Y324600000D03*
D14*
X-97000000Y324600000D03*
X-97000000Y324600000D03*
D15*
X-101400000Y319900000D03*
X-94400000Y318850000D03*
%TD*%
D13*
%TO.C,SW3*%
X-23975000Y305500000D03*
X-23975000Y305500000D03*
X-23975000Y305500000D03*
X-23975000Y305500000D03*
X-23975000Y305500000D03*
D14*
X-23975000Y305500000D03*
X-23975000Y305500000D03*
X-23975000Y305500000D03*
D15*
X-28375000Y300800000D03*
X-28375000Y300800000D03*
X-21375000Y299750000D03*
X-21375000Y299750000D03*
%TD*%
D13*
%TO.C,SW93*%
X-120500000Y381900000D03*
X-120500000Y381900000D03*
X-120500000Y381900000D03*
D14*
X-120500000Y381900000D03*
X-120500000Y381900000D03*
D15*
X-124900000Y377200000D03*
X-117900000Y376150000D03*
%TD*%
D13*
%TO.C,SW29*%
X16970000Y428500000D03*
X16970000Y428500000D03*
X16970000Y428500000D03*
D14*
X16970000Y428500000D03*
X16970000Y428500000D03*
D15*
X12570000Y423800000D03*
X19570000Y422750000D03*
%TD*%
D13*
%TO.C,SW95*%
X-44100000Y381900000D03*
X-44100000Y381900000D03*
X-44100000Y381900000D03*
D14*
X-44100000Y381900000D03*
X-44100000Y381900000D03*
D15*
X-48500000Y377200000D03*
X-41500000Y376150000D03*
%TD*%
D13*
%TO.C,SW49*%
X-25235518Y428500000D03*
X-25235518Y428500000D03*
X-25235518Y428500000D03*
D14*
X-25235518Y428500000D03*
X-25235518Y428500000D03*
D15*
X-29635518Y423800000D03*
X-22635518Y422750000D03*
%TD*%
D13*
%TO.C,SW71*%
X-190020000Y305500000D03*
X-190020000Y305500000D03*
X-190020000Y305500000D03*
X-190020000Y305500000D03*
X-190020000Y305500000D03*
D14*
X-190020000Y305500000D03*
X-190020000Y305500000D03*
X-190020000Y305500000D03*
D15*
X-194420000Y300800000D03*
X-194420000Y300800000D03*
X-187420000Y299750000D03*
X-187420000Y299750000D03*
%TD*%
D13*
%TO.C,SW14*%
X-77900000Y324600000D03*
X-77900000Y324600000D03*
X-77900000Y324600000D03*
D14*
X-77900000Y324600000D03*
X-77900000Y324600000D03*
D15*
X-82300000Y319900000D03*
X-75300000Y318850000D03*
%TD*%
D13*
%TO.C,SW84*%
X-101400000Y381900000D03*
X-101400000Y381900000D03*
X-101400000Y381900000D03*
D14*
X-101400000Y381900000D03*
X-101400000Y381900000D03*
D15*
X-105800000Y377200000D03*
X-98800000Y376150000D03*
%TD*%
D13*
%TO.C,SW45*%
X-49240000Y343700000D03*
X-49240000Y343700000D03*
X-49240000Y343700000D03*
D14*
X-49240000Y343700000D03*
X-49240000Y343700000D03*
D15*
X-53640000Y339000000D03*
X-46640000Y337950000D03*
%TD*%
D13*
%TO.C,SW42*%
X-158700000Y381900000D03*
X-158700000Y381900000D03*
X-158700000Y381900000D03*
D14*
X-158700000Y381900000D03*
X-158700000Y381900000D03*
D15*
X-163100000Y377200000D03*
X-156100000Y376150000D03*
%TD*%
D13*
%TO.C,SW72*%
X-163840000Y343700000D03*
X-163840000Y343700000D03*
X-163840000Y343700000D03*
D14*
X-163840000Y343700000D03*
X-163840000Y343700000D03*
D15*
X-168240000Y339000000D03*
X-161240000Y337950000D03*
%TD*%
D13*
%TO.C,SW24*%
X-87440000Y343700000D03*
X-87440000Y343700000D03*
X-87440000Y343700000D03*
D14*
X-87440000Y343700000D03*
X-87440000Y343700000D03*
D15*
X-91840000Y339000000D03*
X-84840000Y337950000D03*
%TD*%
D13*
%TO.C,SW20*%
X114630000Y362800000D03*
X114630000Y362800000D03*
X114630000Y362800000D03*
D14*
X114630000Y362800000D03*
X114630000Y362800000D03*
D15*
X110230000Y358100000D03*
X117230000Y357050000D03*
%TD*%
D13*
%TO.C,SW13*%
X-116100000Y324600000D03*
X-116100000Y324600000D03*
X-116100000Y324600000D03*
D14*
X-116100000Y324600000D03*
X-116100000Y324600000D03*
D15*
X-120500000Y319900000D03*
X-113500000Y318850000D03*
%TD*%
D13*
%TO.C,SW55*%
X-30140000Y343700000D03*
X-30140000Y343700000D03*
X-30140000Y343700000D03*
D14*
X-30140000Y343700000D03*
X-30140000Y343700000D03*
D15*
X-34540000Y339000000D03*
X-27540000Y337950000D03*
%TD*%
D13*
%TO.C,SW98*%
X-121500000Y404000000D03*
X-121500000Y404000000D03*
X-121500000Y404000000D03*
D14*
X-121500000Y404000000D03*
X-121500000Y404000000D03*
D15*
X-125900000Y399300000D03*
X-118900000Y398250000D03*
%TD*%
D13*
%TO.C,SW39*%
X36070000Y428500000D03*
X36070000Y428500000D03*
X36070000Y428500000D03*
D14*
X36070000Y428500000D03*
X36070000Y428500000D03*
D15*
X31670000Y423800000D03*
X38670000Y422750000D03*
%TD*%
D13*
%TO.C,SW11*%
X-211422000Y362800000D03*
X-211422000Y362800000D03*
X-211422000Y362800000D03*
X-211422000Y362800000D03*
X-211422000Y362800000D03*
D14*
X-211422000Y362800000D03*
X-211422000Y362800000D03*
X-211422000Y362800000D03*
D13*
X-210897000Y362800000D03*
X-210897000Y362800000D03*
X-210897000Y362800000D03*
D15*
X-215822000Y358100000D03*
X-215822000Y358100000D03*
X-208822000Y357050000D03*
X-208822000Y357050000D03*
%TD*%
D13*
%TO.C,SW31*%
X-204250000Y324600000D03*
X-204250000Y324600000D03*
X-204250000Y324600000D03*
X-204250000Y324600000D03*
X-204250000Y324600000D03*
D14*
X-204250000Y324600000D03*
X-204250000Y324600000D03*
X-204250000Y324600000D03*
D13*
X-203725000Y324600000D03*
X-203725000Y324600000D03*
X-203725000Y324600000D03*
D15*
X-208650000Y319900000D03*
X-208650000Y319900000D03*
X-201650000Y318850000D03*
X-201650000Y318850000D03*
%TD*%
D13*
%TO.C,SW73*%
X-106540000Y343700000D03*
X-106540000Y343700000D03*
X-106540000Y343700000D03*
D14*
X-106540000Y343700000D03*
X-106540000Y343700000D03*
D15*
X-110940000Y339000000D03*
X-103940000Y337950000D03*
%TD*%
D13*
%TO.C,SW35*%
X-20600000Y324600000D03*
X-20600000Y324600000D03*
X-20600000Y324600000D03*
D14*
X-20600000Y324600000D03*
X-20600000Y324600000D03*
D15*
X-25000000Y319900000D03*
X-18000000Y318850000D03*
%TD*%
D13*
%TO.C,SW62*%
X-168644000Y362800000D03*
X-168644000Y362800000D03*
X-168644000Y362800000D03*
D14*
X-168644000Y362800000D03*
X-168644000Y362800000D03*
D15*
X-173044000Y358100000D03*
X-166044000Y357050000D03*
%TD*%
D13*
%TO.C,SW79*%
X-48340000Y428500000D03*
X-48340000Y428500000D03*
X-48340000Y428500000D03*
D14*
X-48340000Y428500000D03*
X-48340000Y428500000D03*
D15*
X-52740000Y423800000D03*
X-45740000Y422750000D03*
%TD*%
D13*
%TO.C,SW60*%
X95525000Y362800000D03*
X95525000Y362800000D03*
X95525000Y362800000D03*
D14*
X95525000Y362800000D03*
X95525000Y362800000D03*
D15*
X91125000Y358100000D03*
X98125000Y357050000D03*
%TD*%
D13*
%TO.C,SW91*%
X-182940000Y343700000D03*
X-182940000Y343700000D03*
X-182940000Y343700000D03*
D14*
X-182940000Y343700000D03*
X-182940000Y343700000D03*
D15*
X-187340000Y339000000D03*
X-180340000Y337950000D03*
%TD*%
D13*
%TO.C,SW68*%
X-178800000Y404000000D03*
X-178800000Y404000000D03*
X-178800000Y404000000D03*
D14*
X-178800000Y404000000D03*
X-178800000Y404000000D03*
D15*
X-183200000Y399300000D03*
X-176200000Y398250000D03*
%TD*%
D13*
%TO.C,SW61*%
X-196900000Y381900000D03*
X-196900000Y381900000D03*
X-196900000Y381900000D03*
D14*
X-196900000Y381900000D03*
X-196900000Y381900000D03*
D15*
X-201300000Y377200000D03*
X-194300000Y376150000D03*
%TD*%
D13*
%TO.C,SW67*%
X22356000Y362800000D03*
X22356000Y362800000D03*
X22356000Y362800000D03*
D14*
X22356000Y362800000D03*
X22356000Y362800000D03*
D15*
X17956000Y358100000D03*
X24956000Y357050000D03*
%TD*%
D13*
%TO.C,SW75*%
X-34944000Y362800000D03*
X-34944000Y362800000D03*
X-34944000Y362800000D03*
D14*
X-34944000Y362800000D03*
X-34944000Y362800000D03*
D15*
X-39344000Y358100000D03*
X-32344000Y357050000D03*
%TD*%
D13*
%TO.C,SW96*%
X-5900000Y381900000D03*
X-5900000Y381900000D03*
X-5900000Y381900000D03*
D14*
X-5900000Y381900000D03*
X-5900000Y381900000D03*
D15*
X-10300000Y377200000D03*
X-3300000Y376150000D03*
%TD*%
D13*
%TO.C,SW80*%
X95525000Y381900000D03*
X95525000Y381900000D03*
X95525000Y381900000D03*
D14*
X95525000Y381900000D03*
X95525000Y381900000D03*
D15*
X91125000Y377200000D03*
X98125000Y376150000D03*
%TD*%
D13*
%TO.C,SW89*%
X-109640000Y428500000D03*
X-109640000Y428500000D03*
X-109640000Y428500000D03*
D14*
X-109640000Y428500000D03*
X-109640000Y428500000D03*
D15*
X-114040000Y423800000D03*
X-107040000Y422750000D03*
%TD*%
D13*
%TO.C,SW92*%
X-166315000Y305500000D03*
X-166315000Y305500000D03*
X-166315000Y305500000D03*
X-166315000Y305500000D03*
X-166315000Y305500000D03*
D14*
X-166315000Y305500000D03*
X-166315000Y305500000D03*
X-166315000Y305500000D03*
D15*
X-170715000Y300800000D03*
X-170715000Y300800000D03*
X-163715000Y299750000D03*
X-163715000Y299750000D03*
%TD*%
D13*
%TO.C,SW59*%
X-6135518Y428500000D03*
X-6135518Y428500000D03*
X-6135518Y428500000D03*
D14*
X-6135518Y428500000D03*
X-6135518Y428500000D03*
D15*
X-10535518Y423800000D03*
X-3535518Y422750000D03*
%TD*%
D13*
%TO.C,SW58*%
X-35200000Y404000000D03*
X-35200000Y404000000D03*
X-35200000Y404000000D03*
D14*
X-35200000Y404000000D03*
X-35200000Y404000000D03*
D15*
X-39600000Y399300000D03*
X-32600000Y398250000D03*
%TD*%
D13*
%TO.C,SW50*%
X76420000Y362800000D03*
X76420000Y362800000D03*
X76420000Y362800000D03*
D14*
X76420000Y362800000D03*
X76420000Y362800000D03*
D15*
X72020000Y358100000D03*
X79020000Y357050000D03*
%TD*%
D13*
%TO.C,SW43*%
X-139600000Y381900000D03*
X-139600000Y381900000D03*
X-139600000Y381900000D03*
D14*
X-139600000Y381900000D03*
X-139600000Y381900000D03*
D15*
X-144000000Y377200000D03*
X-137000000Y376150000D03*
%TD*%
D13*
%TO.C,SW51*%
X-187744000Y362800000D03*
X-187744000Y362800000D03*
X-187744000Y362800000D03*
D14*
X-187744000Y362800000D03*
X-187744000Y362800000D03*
D15*
X-192144000Y358100000D03*
X-185144000Y357050000D03*
%TD*%
D13*
%TO.C,SW82*%
X-154300000Y324600000D03*
X-154300000Y324600000D03*
X-154300000Y324600000D03*
D14*
X-154300000Y324600000D03*
X-154300000Y324600000D03*
D15*
X-158700000Y319900000D03*
X-151700000Y318850000D03*
%TD*%
D13*
%TO.C,SW57*%
X32000000Y404000000D03*
X32000000Y404000000D03*
X32000000Y404000000D03*
D14*
X32000000Y404000000D03*
X32000000Y404000000D03*
D15*
X27600000Y399300000D03*
X34600000Y398250000D03*
%TD*%
D13*
%TO.C,SW86*%
X-25000000Y381900000D03*
X-25000000Y381900000D03*
X-25000000Y381900000D03*
D14*
X-25000000Y381900000D03*
X-25000000Y381900000D03*
D15*
X-29400000Y377200000D03*
X-22400000Y376150000D03*
%TD*%
D13*
%TO.C,SW18*%
X-6200000Y404000000D03*
X-6200000Y404000000D03*
X-6200000Y404000000D03*
D14*
X-6200000Y404000000D03*
X-6200000Y404000000D03*
D15*
X-10600000Y399300000D03*
X-3600000Y398250000D03*
%TD*%
D13*
%TO.C,SW47*%
X38910000Y343700000D03*
X38910000Y343700000D03*
X38910000Y343700000D03*
X38910000Y343700000D03*
X38910000Y343700000D03*
D14*
X38910000Y343700000D03*
X38910000Y343700000D03*
X38910000Y343700000D03*
D13*
X39435000Y343700000D03*
X39435000Y343700000D03*
X39435000Y343700000D03*
D15*
X34510000Y339000000D03*
X34510000Y339000000D03*
X41510000Y337950000D03*
X41510000Y337950000D03*
%TD*%
D13*
%TO.C,SW99*%
X-90540000Y428500000D03*
X-90540000Y428500000D03*
X-90540000Y428500000D03*
D14*
X-90540000Y428500000D03*
X-90540000Y428500000D03*
D15*
X-94940000Y423800000D03*
X-87940000Y422750000D03*
%TD*%
D13*
%TO.C,SW88*%
X-140600000Y404000000D03*
X-140600000Y404000000D03*
X-140600000Y404000000D03*
D14*
X-140600000Y404000000D03*
X-140600000Y404000000D03*
D15*
X-145000000Y399300000D03*
X-138000000Y398250000D03*
%TD*%
D13*
%TO.C,SW5*%
X76420000Y305500000D03*
X76420000Y305500000D03*
X76420000Y305500000D03*
D14*
X76420000Y305500000D03*
X76420000Y305500000D03*
D15*
X72020000Y300800000D03*
X79020000Y299750000D03*
%TD*%
D13*
%TO.C,SW34*%
X47140000Y305500000D03*
X47140000Y305500000D03*
X47140000Y305500000D03*
X47140000Y305500000D03*
X47140000Y305500000D03*
D14*
X47140000Y305500000D03*
X47140000Y305500000D03*
X47140000Y305500000D03*
D15*
X42740000Y300800000D03*
X42740000Y300800000D03*
X49740000Y299750000D03*
X49740000Y299750000D03*
%TD*%
D13*
%TO.C,SW78*%
X-159700000Y404000000D03*
X-159700000Y404000000D03*
X-159700000Y404000000D03*
D14*
X-159700000Y404000000D03*
X-159700000Y404000000D03*
D15*
X-164100000Y399300000D03*
X-157100000Y398250000D03*
%TD*%
D13*
%TO.C,SW1*%
X-216000000Y381900000D03*
X-216000000Y381900000D03*
X-216000000Y381900000D03*
D14*
X-216000000Y381900000D03*
X-216000000Y381900000D03*
D15*
X-220400000Y377200000D03*
X-213400000Y376150000D03*
%TD*%
D13*
%TO.C,SW48*%
X-54300000Y404000000D03*
X-54300000Y404000000D03*
X-54300000Y404000000D03*
D14*
X-54300000Y404000000D03*
X-54300000Y404000000D03*
D15*
X-58700000Y399300000D03*
X-51700000Y398250000D03*
%TD*%
D13*
%TO.C,SW9*%
X-151850000Y428500000D03*
X-151850000Y428500000D03*
X-151850000Y428500000D03*
D14*
X-151850000Y428500000D03*
X-151850000Y428500000D03*
D15*
X-156250000Y423800000D03*
X-149250000Y422750000D03*
%TD*%
D13*
%TO.C,SW7*%
X95530000Y423500000D03*
X95530000Y423500000D03*
X95530000Y423500000D03*
D14*
X95530000Y423500000D03*
X95530000Y423500000D03*
D15*
X91130000Y418800000D03*
X98130000Y417750000D03*
%TD*%
D13*
%TO.C,SW8*%
X-216000000Y404000000D03*
X-216000000Y404000000D03*
X-216000000Y404000000D03*
D14*
X-216000000Y404000000D03*
X-216000000Y404000000D03*
D15*
X-220400000Y399300000D03*
X-213400000Y398250000D03*
%TD*%
D16*
%TO.C,U1*%
X-203100000Y426560000D03*
X-200560000Y426560000D03*
X-198020000Y426560000D03*
X-195480000Y426560000D03*
X-192940000Y426560000D03*
X-190400000Y426560000D03*
X-187860000Y426560000D03*
X-185320000Y426560000D03*
X-182780000Y426560000D03*
X-180240000Y426560000D03*
X-177700000Y426560000D03*
X-175160000Y426560000D03*
X-175160000Y441800000D03*
X-177700000Y441800000D03*
X-180240000Y441800000D03*
X-182780000Y441800000D03*
X-185320000Y441800000D03*
X-187860000Y441800000D03*
X-190400000Y441800000D03*
X-192940000Y441800000D03*
X-195480000Y441800000D03*
X-198020000Y441800000D03*
X-200560000Y441800000D03*
X-203100000Y441800000D03*
X-180240000Y429100000D03*
X-180240000Y431640000D03*
X-180240000Y434180000D03*
%TD*%
D13*
%TO.C,SW16*%
X95520000Y324600000D03*
X95520000Y324600000D03*
X95520000Y324600000D03*
D14*
X95520000Y324600000D03*
X95520000Y324600000D03*
D15*
X91120000Y319900000D03*
X98120000Y318850000D03*
%TD*%
D13*
%TO.C,SW65*%
X-54044000Y362800000D03*
X-54044000Y362800000D03*
X-54044000Y362800000D03*
D14*
X-54044000Y362800000D03*
X-54044000Y362800000D03*
D15*
X-58444000Y358100000D03*
X-51444000Y357050000D03*
%TD*%
D13*
%TO.C,SW97*%
X41670000Y381900001D03*
X41670000Y381900001D03*
X41670000Y381900001D03*
D14*
X41670000Y381900001D03*
X41670000Y381900001D03*
D13*
X41670000Y381900000D03*
X41670000Y381900000D03*
D14*
X41670000Y381900000D03*
D15*
X37270000Y377200001D03*
X37270000Y377200000D03*
X44270000Y376150001D03*
X44270000Y376150000D03*
%TD*%
D13*
%TO.C,SW37*%
X76430000Y423500000D03*
X76430000Y423500000D03*
X76430000Y423500000D03*
D14*
X76430000Y423500000D03*
X76430000Y423500000D03*
D15*
X72030000Y418800000D03*
X79030000Y417750000D03*
%TD*%
D13*
%TO.C,SW23*%
X-125640000Y343700000D03*
X-125640000Y343700000D03*
X-125640000Y343700000D03*
D14*
X-125640000Y343700000D03*
X-125640000Y343700000D03*
D15*
X-130040000Y339000000D03*
X-123040000Y337950000D03*
%TD*%
D13*
%TO.C,SW33*%
X-130444000Y362800000D03*
X-130444000Y362800000D03*
X-130444000Y362800000D03*
D14*
X-130444000Y362800000D03*
X-130444000Y362800000D03*
D15*
X-134844000Y358100000D03*
X-127844000Y357050000D03*
%TD*%
D13*
%TO.C,SW64*%
X-92244000Y362800000D03*
X-92244000Y362800000D03*
X-92244000Y362800000D03*
D14*
X-92244000Y362800000D03*
X-92244000Y362800000D03*
D15*
X-96644000Y358100000D03*
X-89644000Y357050000D03*
%TD*%
D13*
%TO.C,SW81*%
X-173400000Y324600000D03*
X-173400000Y324600000D03*
X-173400000Y324600000D03*
D14*
X-173400000Y324600000D03*
X-173400000Y324600000D03*
D15*
X-177800000Y319900000D03*
X-170800000Y318850000D03*
%TD*%
D13*
%TO.C,SW54*%
X-68340000Y343700000D03*
X-68340000Y343700000D03*
X-68340000Y343700000D03*
D14*
X-68340000Y343700000D03*
X-68340000Y343700000D03*
D15*
X-72740000Y339000000D03*
X-65740000Y337950000D03*
%TD*%
D13*
%TO.C,SW46*%
X-11040000Y343700000D03*
X-11040000Y343700000D03*
X-11040000Y343700000D03*
D14*
X-11040000Y343700000D03*
X-11040000Y343700000D03*
D15*
X-15440000Y339000000D03*
X-8440000Y337950000D03*
%TD*%
D13*
%TO.C,SW4*%
X23435000Y305500000D03*
X23435000Y305500000D03*
X23435000Y305500000D03*
X23435000Y305500000D03*
X23435000Y305500000D03*
D14*
X23435000Y305500000D03*
X23435000Y305500000D03*
X23435000Y305500000D03*
D15*
X19035000Y300800000D03*
X19035000Y300800000D03*
X26035000Y299750000D03*
X26035000Y299750000D03*
%TD*%
D13*
%TO.C,SW69*%
X-67435518Y428500000D03*
X-67435518Y428500000D03*
X-67435518Y428500000D03*
D14*
X-67435518Y428500000D03*
X-67435518Y428500000D03*
D15*
X-71835518Y423800000D03*
X-64835518Y422750000D03*
%TD*%
D13*
%TO.C,SW77*%
X46034000Y362800000D03*
X46034000Y362800000D03*
X46034000Y362800000D03*
X46034000Y362800000D03*
X46034000Y362800000D03*
D14*
X46034000Y362800000D03*
X46034000Y362800000D03*
X46034000Y362800000D03*
D13*
X46559000Y362800000D03*
X46559000Y362800000D03*
X46559000Y362800000D03*
D15*
X41634000Y358100000D03*
X41634000Y358100000D03*
X48634000Y357050000D03*
X48634000Y357050000D03*
%TD*%
D13*
%TO.C,SW32*%
X-149544000Y362800000D03*
X-149544000Y362800000D03*
X-149544000Y362800000D03*
D14*
X-149544000Y362800000D03*
X-149544000Y362800000D03*
D15*
X-153944000Y358100000D03*
X-146944000Y357050000D03*
%TD*%
D13*
%TO.C,SW30*%
X76430000Y404400000D03*
X76430000Y404400000D03*
X76430000Y404400000D03*
D14*
X76430000Y404400000D03*
X76430000Y404400000D03*
D15*
X72030000Y399700000D03*
X79030000Y398650000D03*
%TD*%
D13*
%TO.C,SW2*%
X-95120000Y305500000D03*
X-95120000Y305500000D03*
X-95120000Y305500000D03*
X-95120000Y305500000D03*
X-95120000Y305500000D03*
D14*
X-95120000Y305500000D03*
X-95120000Y305500000D03*
X-95120000Y305500000D03*
D13*
X-94595000Y305500000D03*
X-94595000Y305500000D03*
X-94595000Y305500000D03*
D15*
X-99520000Y300800000D03*
X-99520000Y300800000D03*
X-92520000Y299750000D03*
X-92520000Y299750000D03*
%TD*%
M02*
